<svg width="32" height="21" viewBox="0 0 32 21" fill="none" xmlns="http://www.w3.org/2000/svg">
<path d="M30.4 5.27169C29.9757 5.27169 29.5687 5.40629 29.2686 5.64587C28.9686 5.88545 28.8 6.21039 28.8 6.54921V16.7694C28.8 17.1082 28.6314 17.4331 28.3314 17.6727C28.0313 17.9123 27.6243 18.0469 27.2 18.0469H4.8C4.37565 18.0469 3.96869 17.9123 3.66863 17.6727C3.36857 17.4331 3.2 17.1082 3.2 16.7694V4.51796L12.608 12.0298C13.508 12.7475 14.728 13.1506 16 13.1506C17.272 13.1506 18.492 12.7475 19.392 12.0298L25.136 7.45625C25.4373 7.21569 25.6065 6.88942 25.6065 6.54921C25.6065 6.20901 25.4373 5.88273 25.136 5.64217C24.8347 5.40161 24.4261 5.26647 24 5.26647C23.5739 5.26647 23.1653 5.40161 22.864 5.64217L17.136 10.2285C16.9873 10.3482 16.8103 10.4432 16.6153 10.5081C16.4203 10.573 16.2112 10.6063 16 10.6063C15.7888 10.6063 15.5797 10.573 15.3847 10.5081C15.1897 10.4432 15.0127 10.3482 14.864 10.2285L5.456 2.71666H17.6C18.0243 2.71666 18.4313 2.58206 18.7314 2.34248C19.0314 2.1029 19.2 1.77796 19.2 1.43914C19.2 1.10032 19.0314 0.775379 18.7314 0.535798C18.4313 0.296217 18.0243 0.161621 17.6 0.161621H4.8C3.52696 0.161621 2.30606 0.565407 1.40589 1.28415C0.505713 2.00289 0 2.97772 0 3.99417V16.7694C0 17.7858 0.505713 18.7606 1.40589 19.4794C2.30606 20.1981 3.52696 20.6019 4.8 20.6019H27.2C28.473 20.6019 29.6939 20.1981 30.5941 19.4794C31.4943 18.7606 32 17.7858 32 16.7694V6.54921C32 6.21039 31.8314 5.88545 31.5314 5.64587C31.2313 5.40629 30.8243 5.27169 30.4 5.27169ZM24 2.71666H30.4C30.8243 2.71666 31.2313 2.58206 31.5314 2.34248C31.8314 2.1029 32 1.77796 32 1.43914C32 1.10032 31.8314 0.775379 31.5314 0.535798C31.2313 0.296217 30.8243 0.161621 30.4 0.161621H24C23.5757 0.161621 23.1687 0.296217 22.8686 0.535798C22.5686 0.775379 22.4 1.10032 22.4 1.43914C22.4 1.77796 22.5686 2.1029 22.8686 2.34248C23.1687 2.58206 23.5757 2.71666 24 2.71666Z" fill="#EC008C"/>
</svg>
