<svg width="32" height="33" viewBox="0 0 32 33" fill="none" xmlns="http://www.w3.org/2000/svg">
<path d="M16 14.4544C16.7911 14.4544 17.5645 14.2659 18.2223 13.9126C18.8801 13.5594 19.3928 13.0573 19.6955 12.4698C19.9983 11.8824 20.0775 11.236 19.9231 10.6124C19.7688 9.98875 19.3878 9.41592 18.8284 8.96631C18.269 8.5167 17.5563 8.21052 16.7804 8.08647C16.0044 7.96243 15.2002 8.02609 14.4693 8.26942C13.7384 8.51274 13.1136 8.9248 12.6741 9.45348C12.2346 9.98216 12 10.6037 12 11.2396C12 12.0922 12.4214 12.9099 13.1716 13.5128C13.9217 14.1157 14.9391 14.4544 16 14.4544ZM14.58 25.5617C14.7659 25.7124 14.9871 25.832 15.2308 25.9136C15.4746 25.9952 15.736 26.0372 16 26.0372C16.264 26.0372 16.5254 25.9952 16.7692 25.9136C17.0129 25.832 17.2341 25.7124 17.42 25.5617L25.6 18.9713C27.4999 17.4451 28.794 15.5003 29.3185 13.383C29.8431 11.2656 29.5746 9.07082 28.547 7.07614C27.5193 5.08145 25.7788 3.37652 23.5454 2.17697C21.312 0.977423 18.6862 0.337158 16 0.337158C13.3138 0.337158 10.688 0.977423 8.45462 2.17697C6.22124 3.37652 4.48067 5.08145 3.45304 7.07614C2.42541 9.07082 2.15689 11.2656 2.68146 13.383C3.20602 15.5003 4.50009 17.4451 6.4 18.9713L14.58 25.5617ZM6.46 10.5001C6.59665 9.35407 7.05003 8.247 7.78705 7.25975C8.52406 6.2725 9.5261 5.43 10.72 4.79377C12.2884 3.9661 14.1237 3.52512 16 3.52512C17.8763 3.52512 19.7116 3.9661 21.28 4.79377C22.4659 5.42782 23.4623 6.26521 24.1975 7.24572C24.9326 8.22622 25.3883 9.32548 25.5317 10.4644C25.6752 11.6034 25.5028 12.7537 25.027 13.8328C24.5512 14.9118 23.7838 15.8926 22.78 16.7048L16 22.154L9.22 16.7048C8.21504 15.9005 7.44585 14.9262 6.96841 13.8529C6.49097 12.7796 6.31728 11.6342 6.46 10.5001ZM30 29.2428H2C1.46957 29.2428 0.96086 29.4121 0.585787 29.7136C0.210714 30.015 0 30.4239 0 30.8502C0 31.2765 0.210714 31.6854 0.585787 31.9868C0.96086 32.2883 1.46957 32.4576 2 32.4576H30C30.5304 32.4576 31.0391 32.2883 31.4142 31.9868C31.7893 31.6854 32 31.2765 32 30.8502C32 30.4239 31.7893 30.015 31.4142 29.7136C31.0391 29.4121 30.5304 29.2428 30 29.2428Z" fill="#EC008C"/>
</svg>
