<svg width="26" height="24" viewBox="0 0 26 24" fill="none" xmlns="http://www.w3.org/2000/svg">
<path d="M19.2962 4.05334C18.9976 4.05334 18.7058 4.13578 18.4575 4.29025C18.2093 4.44472 18.0158 4.66428 17.9016 4.92115C17.7873 5.17802 17.7574 5.46068 17.8157 5.73337C17.8739 6.00607 18.0177 6.25655 18.2288 6.45315C18.4399 6.64976 18.7089 6.78364 19.0017 6.83789C19.2945 6.89213 19.598 6.86429 19.8738 6.75789C20.1496 6.65149 20.3854 6.47131 20.5512 6.24013C20.7171 6.00895 20.8056 5.73715 20.8056 5.45912C20.8056 5.08628 20.6466 4.72871 20.3635 4.46508C20.0804 4.20144 19.6965 4.05334 19.2962 4.05334ZM25.0825 6.88833C25.058 5.91635 24.8625 4.95468 24.5039 4.04162C24.184 3.2604 23.6862 2.55299 23.0447 1.96809C22.4218 1.36762 21.6604 0.906936 20.8182 0.620887C19.8404 0.276659 18.8066 0.0904503 17.7615 0.070289C16.4281 -6.54618e-08 16.0005 0 12.579 0C9.1575 0 8.72981 -6.54618e-08 7.39644 0.070289C6.35132 0.0904503 5.31757 0.276659 4.33975 0.620887C3.49907 0.909832 2.73836 1.37012 2.11327 1.96809C1.4685 2.54819 0.973835 3.25724 0.666686 4.04162C0.297066 4.95227 0.0971223 5.915 0.0754738 6.88833C-7.02905e-08 8.1301 0 8.52841 0 11.7148C0 14.9013 -7.02905e-08 15.2996 0.0754738 16.5414C0.0971223 17.5147 0.297066 18.4774 0.666686 19.3881C0.973835 20.1724 1.4685 20.8815 2.11327 21.4616C2.73836 22.0596 3.49907 22.5199 4.33975 22.8088C5.31757 23.153 6.35132 23.3392 7.39644 23.3594C8.72981 23.4297 9.1575 23.4297 12.579 23.4297C16.0005 23.4297 16.4281 23.4297 17.7615 23.3594C18.8066 23.3392 19.8404 23.153 20.8182 22.8088C21.6604 22.5228 22.4218 22.0621 23.0447 21.4616C23.689 20.8789 24.1873 20.1708 24.5039 19.3881C24.8625 18.475 25.058 17.5133 25.0825 16.5414C25.0825 15.2996 25.158 14.9013 25.158 11.7148C25.158 8.52841 25.158 8.1301 25.0825 6.88833ZM22.8183 16.4008C22.8091 17.1444 22.6645 17.8812 22.3906 18.5797C22.1897 19.0896 21.8671 19.5502 21.4472 19.9269C21.0392 20.3141 20.5455 20.6139 20.0006 20.8056C19.2505 21.0607 18.4594 21.1953 17.6609 21.2039C16.403 21.2624 15.9376 21.2742 12.6293 21.2742C9.32102 21.2742 8.8556 21.2742 7.5977 21.2039C6.76861 21.2183 5.94306 21.0994 5.15738 20.8524C4.63634 20.651 4.16535 20.3519 3.77369 19.9738C3.35618 19.5975 3.03763 19.1364 2.84285 18.6266C2.53574 17.918 2.36541 17.1645 2.33969 16.4008C2.33969 15.2293 2.26422 14.7958 2.26422 11.7148C2.26422 8.63384 2.26422 8.20039 2.33969 7.02891C2.34533 6.26868 2.49435 5.51528 2.77995 4.80309C3.0014 4.30862 3.34131 3.86784 3.77369 3.51445C4.15586 3.11166 4.62817 2.79176 5.15738 2.57727C5.92413 2.31959 6.73227 2.18491 7.54739 2.17896C8.80529 2.17896 9.27071 2.10867 12.579 2.10867C15.8873 2.10867 16.3527 2.10867 17.6106 2.17896C18.409 2.18749 19.2002 2.32217 19.9503 2.57727C20.5219 2.77484 21.0349 3.09605 21.4472 3.51445C21.8594 3.87431 22.1815 4.31426 22.3906 4.80309C22.6702 5.51644 22.8149 6.26953 22.8183 7.02891C22.8812 8.20039 22.8937 8.63384 22.8937 11.7148C22.8937 14.7958 22.8812 15.2293 22.8183 16.4008ZM12.579 5.70513C11.3032 5.70744 10.0568 6.06188 8.99731 6.72364C7.93777 7.3854 7.11263 8.3248 6.62615 9.42313C6.13966 10.5215 6.01366 11.7294 6.26407 12.8944C6.51448 14.0594 7.13006 15.1292 8.03303 15.9685C8.936 16.8078 10.0858 17.379 11.3373 17.6099C12.5887 17.8409 13.8855 17.7212 15.0639 17.266C16.2423 16.8108 17.2494 16.0405 17.9579 15.0524C18.6664 14.0644 19.0446 12.903 19.0446 11.7148C19.0462 10.9242 18.88 10.1411 18.5556 9.41048C18.2311 8.67989 17.7547 8.01624 17.1538 7.45773C16.5529 6.89921 15.8394 6.45684 15.0543 6.15607C14.2691 5.85529 13.4279 5.70204 12.579 5.70513ZM12.579 15.6159C11.7505 15.6159 10.9407 15.3871 10.2518 14.9584C9.56296 14.5298 9.02607 13.9205 8.70903 13.2077C8.39199 12.4949 8.30904 11.7105 8.47067 10.9538C8.63229 10.1971 9.03124 9.50196 9.61705 8.95639C10.2029 8.41082 10.9492 8.03928 11.7618 7.88876C12.5743 7.73824 13.4166 7.81549 14.182 8.11075C14.9474 8.40601 15.6016 8.90602 16.0618 9.54754C16.5221 10.1891 16.7678 10.9433 16.7678 11.7148C16.7678 12.2271 16.6594 12.7344 16.4489 13.2077C16.2384 13.681 15.9299 14.1111 15.5409 14.4733C15.1519 14.8355 14.6902 15.1229 14.182 15.3189C13.6738 15.515 13.1291 15.6159 12.579 15.6159Z" fill="#EC008C"/>
</svg>
