<svg width="62" height="90" viewBox="0 0 62 90" fill="none" xmlns="http://www.w3.org/2000/svg">
<path d="M24.7288 14.946C24.7288 15.0796 24.4405 15.7859 24.0982 16.5113C23.3957 18.0003 23.3236 18.4012 23.792 18.3057C24.1163 18.2485 25.4314 15.6523 25.4494 15.0414C25.4494 14.8505 25.3233 14.7169 25.0891 14.7169C24.8909 14.7169 24.7288 14.8315 24.7288 14.946Z" fill="#3E0736"/>
<path d="M30.998 16.3777C29.6829 17.8667 27.8454 20.8447 28.0615 21.2074C28.3137 21.6273 28.62 21.341 29.1785 20.1956C29.5027 19.5466 30.2954 18.3439 30.9619 17.5231C31.9888 16.225 32.241 15.6714 31.7726 15.6714C31.7006 15.6714 31.3583 15.9959 30.998 16.3777Z" fill="#3E0736"/>
<path d="M31.3042 18.6684C30.7638 19.3748 30.3134 20.062 30.3134 20.1765C30.3134 20.6538 30.7458 20.6919 31.016 20.2338C31.1781 19.9856 31.6465 19.3175 32.0789 18.7639C32.7815 17.8476 32.9076 17.3895 32.4752 17.3895C32.3851 17.3895 31.8627 17.9621 31.3042 18.6684Z" fill="#3E0736"/>
<path d="M22.2967 18.9548C22.0986 19.6038 21.36 23.8035 21.432 23.9181C21.468 24.0135 21.6122 24.0708 21.7563 24.0708C21.9184 24.0708 22.0445 23.7463 22.1166 23.1545C22.1886 22.6581 22.3868 21.551 22.585 20.6728C22.7651 19.7947 22.9273 18.993 22.9273 18.8975C22.9273 18.6303 22.3868 18.6875 22.2967 18.9548Z" fill="#3E0736"/>
<path d="M48.1122 21.0546C46.3828 23.1163 45.428 24.3571 44.8515 25.3498C44.4732 25.9797 44.203 26.2088 43.6265 26.3615C43.032 26.5333 42.8338 26.5333 42.5996 26.3042C42.4195 26.1515 42.1673 25.9988 42.0232 25.9415C41.879 25.8843 41.3026 25.4452 40.7441 24.968C39.7893 24.1471 39.5191 23.9944 38.9966 24.0517C38.5463 24.0899 38.8705 24.9107 39.5011 25.3498C41.2305 26.5333 41.879 27.2205 42.5636 28.6522L43.2482 30.1031L42.7798 30.084C42.0232 30.084 42.0772 30.6566 42.9059 31.6111C43.3923 32.1647 43.6445 32.642 43.6445 32.9665C43.6445 33.5773 44.293 35.009 44.7614 35.4672C45.0497 35.7344 45.1398 35.7535 45.3559 35.5054C45.5721 35.2763 45.5541 35.1236 45.2298 34.3791C45.0317 33.9019 44.8335 32.9856 44.7975 32.3556C44.7254 31.2102 44.7434 31.1721 45.2659 30.9048C45.8603 30.5994 46.4008 29.664 46.8151 28.2132C46.9953 27.5832 47.2115 27.2396 47.4997 27.1251C47.878 26.9724 48.5086 25.7697 48.5086 25.178C48.5086 25.0634 48.8869 24.1471 49.3553 23.1736C49.9858 21.8182 50.202 21.1501 50.202 20.4819C50.22 19.7184 50.1659 19.5847 49.8417 19.5275C49.5534 19.4893 49.1211 19.8711 48.1122 21.0546Z" fill="#3E0736"/>
<path d="M25.4313 24.5098C24.6927 25.7506 24.3865 26.4379 23.7379 28.3468C22.9993 30.4848 22.1706 33.9591 22.3148 34.2073C22.5129 34.5509 22.8732 34.0164 22.9993 33.1765C23.3236 31.0384 25.1251 26.037 26.0799 24.7198C26.5303 24.0899 26.5483 23.689 26.1159 23.689C25.9898 23.689 25.6836 24.0517 25.4313 24.5098Z" fill="#3E0736"/>
<path d="M54.5616 26.896C54.5075 26.9915 54.4175 27.6596 54.3454 28.385C54.2914 29.1104 54.0752 29.9885 53.895 30.3321C53.4807 31.1148 53.4627 31.4966 53.859 32.7947C54.1473 33.7301 54.1473 33.8255 53.859 34.0546C53.5888 34.2646 53.5888 34.3791 53.859 35.6199C54.0031 36.3453 54.2914 37.2807 54.4895 37.6816C54.7417 38.2161 54.7778 38.4833 54.6337 38.7697C54.4715 39.0751 54.5796 39.3996 55.2462 40.5259C55.6785 41.2895 56.1469 41.9194 56.273 41.9194C56.6513 41.9194 56.6693 41.3277 56.309 40.755C56.1289 40.4496 55.9848 39.9914 55.9668 39.7242C55.9487 39.4569 55.6605 38.5215 55.3002 37.6243C54.7057 36.1353 54.6517 35.8872 54.7417 34.7609C54.8318 33.9019 54.7778 33.2146 54.5616 32.5083C54.2914 31.5157 54.2914 31.4393 54.6517 30.7139C55.084 29.8167 55.2462 26.9342 54.8678 26.8006C54.7598 26.7624 54.6156 26.8006 54.5616 26.896Z" fill="#3E0736"/>
<path d="M15.7753 30.9621C14.8565 31.153 14.1179 31.5348 13.6315 32.1265C13.019 32.8138 12.8389 33.291 13.037 33.6728C13.3253 34.2073 13.8837 34.0546 14.3161 33.3292C14.8385 32.4892 15.361 32.2029 16.4058 32.2029C17.2345 32.1838 17.2525 32.2029 17.4867 32.9474C17.793 33.8828 17.6309 40.1441 17.2706 41.6331C17.0724 42.4158 17.0724 42.6258 17.2706 42.7976C17.4147 42.9121 17.6309 42.9694 17.757 42.9121C18.4595 42.6258 19.0901 35.1045 18.5856 32.6992C18.2794 31.1721 17.4147 30.6376 15.7753 30.9621Z" fill="#3E0736"/>
<path d="M28.7101 34.5891C28.0976 35.1236 27.6112 35.6199 27.6112 35.7154C27.6112 35.7917 27.3229 36.2499 26.9626 36.6889C26.6023 37.1471 26.242 37.7007 26.17 37.9107C26.0979 38.1397 26.206 39.1324 26.4402 40.335C26.9626 42.9503 26.9806 43.0075 27.467 42.9312C28.0435 42.8548 28.0796 42.1103 27.6112 40.1632C27.395 39.266 27.2689 38.3497 27.3229 38.1016C27.377 37.8725 27.7193 37.4525 28.0615 37.1662C28.4038 36.8798 28.6921 36.5362 28.6921 36.4026C28.6921 36.1353 29.5027 35.2763 30.0792 34.9709C30.6377 34.6654 30.962 34.8563 32.2951 36.1735C32.9436 36.8226 33.7363 37.4716 34.0425 37.6434C34.3488 37.8152 34.9253 38.4833 35.3396 39.1324C35.844 39.9151 36.3304 40.4305 36.8529 40.6977C37.2672 40.9268 37.8437 41.3086 38.1139 41.5567C38.4021 41.8049 38.7805 42.0149 38.9606 42.0149C39.3029 42.0149 39.8614 41.5377 39.8614 41.2513C39.8614 41.0986 37.6996 39.6669 37.1411 39.4378C36.997 39.3805 36.6187 38.9224 36.3304 38.4452C35.7179 37.4143 35.1234 36.7653 34.4028 36.3644C34.1146 36.1926 33.5021 35.639 33.0517 35.1045C32.0248 33.9591 31.4664 33.6155 30.5116 33.6155C29.9171 33.6155 29.6288 33.7873 28.7101 34.5891Z" fill="#3E0736"/>
<path d="M12.0642 33.94C12.0102 34.0355 11.794 34.8182 11.5778 35.7154C11.2716 36.9562 11.1815 37.9107 11.1635 39.7242C11.1635 41.9004 11.2175 42.2631 11.7219 43.9429C12.1183 45.1837 12.2984 46.1764 12.3164 46.9972L12.3344 48.219L12.7668 47.2263C13.0731 46.5009 13.1451 46.1 13.037 45.7946C12.9109 45.451 12.983 45.2028 13.3433 44.6874C13.8117 44.0193 14.7845 42.9694 14.9466 42.9694C15.0727 42.9694 14.8205 44.3247 14.5143 45.2601C14.3521 45.7373 13.8837 46.9782 13.4694 48.0281C12.8209 49.6316 12.2444 51.6933 12.5326 51.3687C12.7848 51.0824 15.0367 47.8372 15.1628 47.5699C15.3249 47.2645 15.7573 45.2219 16.0816 43.2557C16.4419 41.0604 16.4779 40.1823 16.2077 38.9606C16.0636 38.2734 15.9735 37.4525 16.0275 37.1471C16.0996 36.6317 15.9915 36.4408 15.2889 35.7535C14.8385 35.3145 14.3882 34.9518 14.2981 34.9518C14.0098 34.9518 13.7756 35.4099 13.6495 36.269C13.5775 36.7271 13.3253 37.548 13.0911 38.0825C12.4786 39.4951 12.4786 41.4804 13.1271 42.8167C13.4874 43.5611 13.5415 43.8284 13.3613 43.9429C13.019 44.172 12.9289 44.0384 12.5506 42.8357C12.0822 41.3468 12.0822 36.269 12.5326 34.9709C12.6947 34.5127 12.7848 34.0737 12.7308 33.9782C12.6227 33.7682 12.1723 33.7491 12.0642 33.94ZM14.5323 40.2968C14.5143 40.4496 14.4782 40.755 14.4422 40.965C14.3882 41.2704 14.4602 41.3277 14.7845 41.2895C15.0547 41.2513 15.1808 41.3277 15.1808 41.5186C15.1808 41.9576 14.3341 41.9004 14.0999 41.4613C14.0098 41.2513 13.9198 40.8123 13.9198 40.4877C13.9198 40.0105 13.9918 39.896 14.244 39.9532C14.4062 39.9914 14.5323 40.1441 14.5323 40.2968Z" fill="#3E0736"/>
<path d="M48.0221 37.7579C47.6799 37.8916 47.7339 38.407 48.1302 38.846C48.3284 39.0751 48.995 40.335 49.6435 41.6713C50.6343 43.7139 50.7604 44.1338 50.5623 44.3438C50.3461 44.5729 50.3461 44.7447 50.5803 45.5465C50.7244 46.0619 50.7965 46.52 50.7604 46.5582C50.7244 46.6155 50.4722 46.5009 50.22 46.3291C49.6795 45.9473 49.2291 46.0428 49.2291 46.52C49.2291 46.6918 49.4453 47.4554 49.6975 48.1999C50.0398 49.2116 50.1839 49.9561 50.202 51.1206C50.22 52.7623 50.3101 53.0104 50.7604 52.8386C50.9226 52.7623 51.0307 52.4759 51.0307 52.0369C51.0307 51.6742 51.1207 51.216 51.2288 51.0251C51.3729 50.777 51.2829 50.2997 50.8865 49.0207L50.3641 47.3218L50.7784 47.4172C51.5531 47.5699 51.6612 47.3218 51.409 45.9282C51.1928 44.7638 51.1928 44.6492 51.499 44.4202C51.8053 44.172 51.7873 44.1147 51.3189 43.2366C51.0667 42.7212 50.5443 41.6522 50.202 40.8695C49.4633 39.2278 48.6887 37.8534 48.4185 37.7579C48.3284 37.7198 48.1302 37.7198 48.0221 37.7579Z" fill="#3E0736"/>
<path d="M28.9263 38.1206C28.8722 38.2924 28.9803 38.7888 29.1785 39.2278C29.4127 39.7242 29.5207 40.2396 29.4667 40.545C29.3766 40.9841 29.4487 41.0986 29.9531 41.2704L30.5116 41.4804L30.0612 41.9958C29.3226 42.7976 28.638 44.592 28.7641 45.3556C28.8542 45.871 28.7821 46.1573 28.3318 46.8636C27.7553 47.7799 26.9806 48.5053 26.6203 48.5053C26.26 48.5053 24.963 49.8034 24.7288 50.3952C24.2063 51.7314 25.3052 52.056 26.0979 50.7961C26.4222 50.2997 26.7104 50.0325 26.9806 50.0325C27.1968 50.0325 27.8093 49.7843 28.3498 49.4789C29.1604 49.0207 29.6108 48.9062 31.1781 48.8108C33.1598 48.6771 34.1866 48.3717 35.1775 47.6463C35.5197 47.3981 36.2584 47.0927 36.7988 46.9782C37.3393 46.8636 38.0238 46.6345 38.2941 46.4627C38.5823 46.31 39.0507 46.1573 39.3569 46.1382C39.8253 46.1 40.2036 45.7755 40.2217 45.4128C40.2217 45.0883 39.5911 44.6874 39.0687 44.6874C38.6724 44.6874 38.3661 44.5347 38.1139 44.2293C37.8257 43.8857 37.4654 43.7329 36.7267 43.6375C35.7359 43.5039 35.2675 43.2175 34.1866 42.1485C33.8804 41.8431 32.8715 40.9077 31.9348 40.0678C30.998 39.2087 30.1152 38.3497 29.9891 38.1588C29.7009 37.7388 29.0884 37.7007 28.9263 38.1206ZM31.7546 42.7212C31.7546 42.8167 31.6285 43.0457 31.4844 43.2366C31.1421 43.7139 31.1421 44.3056 31.5024 44.8401C31.8987 45.451 32.7094 45.3937 33.1778 44.7256L33.5381 44.2102L33.5561 44.9165C33.5561 45.7373 33.2138 46.0237 32.223 46.0237C31.5384 46.0237 30.6737 45.6801 30.6737 45.4128C30.6737 45.3365 30.5116 45.2601 30.3134 45.2601C29.827 45.2601 29.863 44.821 30.4035 43.5802C30.7638 42.7594 30.9259 42.5876 31.3042 42.5876C31.5564 42.5876 31.7546 42.6448 31.7546 42.7212ZM30.2414 46.7873C30.3314 46.8827 30.7278 47.0927 31.1241 47.2454L31.8447 47.5318H30.5476C29.827 47.5508 29.2325 47.4936 29.2325 47.4172C29.2325 47.2454 29.791 46.5964 29.9531 46.5964C30.0072 46.5964 30.1333 46.6727 30.2414 46.7873Z" fill="#3E0736"/>
<path d="M54.7237 41.4422C54.4535 41.9004 57.5701 46.5964 58.1646 46.5964C58.5429 46.5964 58.4708 45.9473 58.0385 45.5274C57.5161 45.031 56.201 43.0648 55.7326 42.0531C55.3723 41.2895 54.9579 41.0413 54.7237 41.4422Z" fill="#3E0736"/>
<path d="M26.206 44.6302C25.3413 45.6037 25.1071 46.2146 25.6295 46.2146C25.9358 46.2146 27.9715 44.0956 27.9715 43.7902C27.9715 43.1984 27.1248 43.5993 26.206 44.6302Z" fill="#3E0736"/>
<path d="M54.8318 43.7902C54.6877 44.0002 54.8138 44.3247 55.4083 45.2028C56.8135 47.3409 57.6061 48.2953 57.9304 48.3144C58.3808 48.3144 58.3087 47.8754 57.7683 47.3409C57.5161 47.0927 56.8495 46.1764 56.309 45.3174C55.1921 43.523 55.1201 43.4466 54.8318 43.7902Z" fill="#3E0736"/>
<path d="M48.2744 44.2293C48.1122 44.4011 48.1122 47.0163 48.2563 47.9708C48.3284 48.4099 48.4725 48.6962 48.6166 48.6962C48.8328 48.6962 48.8508 48.3144 48.7608 46.5391C48.6527 44.4774 48.5446 43.962 48.2744 44.2293Z" fill="#3E0736"/>
<path d="M16.4419 44.9547C16.4419 45.9664 15.2168 48.7917 14.19 50.1279C13.8657 50.5479 13.3433 51.3497 13.037 51.8842C12.7128 52.4378 12.3344 52.9532 12.1903 53.0486C12.0642 53.125 11.9021 53.4877 11.83 53.8504L11.7219 54.5185L12.5146 53.6404C13.6856 52.3423 16.0455 48.658 16.55 47.3409C16.7841 46.7109 17.0364 45.8137 17.1084 45.3556C17.1985 44.5729 17.1805 44.4965 16.8202 44.4965C16.55 44.4965 16.4419 44.6111 16.4419 44.9547Z" fill="#3E0736"/>
<path d="M26.3681 46.1C24.981 47.589 24.7288 47.9899 25.053 48.1999C25.2332 48.3144 28.3318 45.2219 28.3318 44.9356C28.3318 44.3056 27.7012 44.6683 26.3681 46.1Z" fill="#3E0736"/>
<path d="M23.756 49.8798C22.7471 51.6169 22.549 52.0178 22.639 52.2469C22.8192 52.7623 23.2876 52.5141 23.6659 51.6933C23.8821 51.2542 24.2063 50.6624 24.4045 50.3761C24.6027 50.0707 24.6927 49.7652 24.6387 49.6507C24.4405 49.3262 24.0262 49.4407 23.756 49.8798Z" fill="#3E0736"/>
<path d="M47.6618 52.0751C47.5357 52.1323 47.4277 52.3232 47.4277 52.5141C47.4277 52.8768 47.7339 53.0868 48.1122 52.9532C48.2203 52.8959 48.3284 52.705 48.3284 52.5141C48.3284 52.1514 48.0221 51.9414 47.6618 52.0751Z" fill="#3E0736"/>
<path d="M20.9816 54.6712C20.3691 55.6639 19.7026 56.6184 19.5044 56.8092C19.0901 57.2101 19.018 57.8592 19.3963 57.8592C19.7206 57.8592 22.8012 53.335 22.657 53.0868C22.4048 52.6477 22.0265 52.9914 20.9816 54.6712Z" fill="#3E0736"/>
<path d="M50.6163 54.3467C50.5442 54.4231 50.4902 54.8048 50.4902 55.2057C50.4902 55.9311 50.1659 57.4774 49.7876 58.4891C49.6795 58.7946 49.6255 59.1191 49.6975 59.2145C49.9137 59.5963 50.274 59.3291 50.6523 58.47C51.3009 57.0192 51.2648 53.6595 50.6163 54.3467Z" fill="#3E0736"/>
<path d="M16.0275 68.6638C15.9555 68.7402 15.9014 68.9693 15.9014 69.1601C15.9014 69.4083 16.0275 69.5038 16.3698 69.5038C16.7481 69.5038 16.8202 69.4274 16.7661 69.0838C16.7121 68.6447 16.2797 68.4157 16.0275 68.6638Z" fill="#3E0736"/>
<path d="M10.8032 69.1792C10.6591 69.5801 10.9473 69.9237 11.3256 69.8474C11.812 69.7519 11.776 69.0456 11.2896 68.9693C11.0734 68.9311 10.8572 69.0265 10.8032 69.1792Z" fill="#3E0736"/>
<path d="M13.7216 69.2365C13.5234 69.5038 13.5415 69.5992 13.8837 69.8856C14.0999 70.0764 14.2801 70.3246 14.2801 70.4201C14.2801 70.7255 14.8385 70.8591 15.1088 70.63C15.451 70.3246 15.415 69.9046 15.0547 69.7519C14.8746 69.6756 14.6224 69.4656 14.4962 69.2747C14.208 68.8547 14.0279 68.8356 13.7216 69.2365Z" fill="#3E0736"/>
<path d="M12.1903 70.9164C12.0282 71.3745 12.2624 71.8327 12.6047 71.7563C13.037 71.68 13.037 70.7637 12.6047 70.6873C12.4425 70.6491 12.2444 70.7637 12.1903 70.9164Z" fill="#3E0736"/>
<path fill-rule="evenodd" clip-rule="evenodd" d="M14.6404 2.72872C14.6404 1.73606 14.6944 1.52608 15.0367 1.27792C15.6132 0.838859 16.0095 0.896126 17.847 1.62153C19.3423 2.2133 20.6033 3.03415 22.657 4.75221C22.9633 5.00037 24.0622 6.10756 25.1071 7.19566C26.1519 8.28376 27.0707 9.18096 27.1428 9.18096C27.1968 9.18096 27.2509 9.06643 27.2509 8.91371C27.2509 8.58919 27.7373 8.36012 28.0615 8.55101C28.1876 8.64646 28.5119 8.99007 28.7821 9.31459C29.0524 9.6582 29.4127 9.94454 29.5928 9.94454C29.773 9.94454 29.9711 10.0209 30.0432 10.1164C30.0972 10.2118 30.4035 10.25 30.7278 10.1927C31.2322 10.1164 31.3583 10.1736 31.5204 10.5745C31.7186 11.0136 31.8087 11.0517 32.8175 10.9754C33.412 10.9372 33.9524 10.9945 34.0065 11.0708C34.0605 11.1663 34.2407 11.2045 34.4388 11.1472C34.7991 11.0517 35.3576 11.529 35.3576 11.968C35.3576 12.1208 35.5378 12.2353 35.79 12.2353C36.0422 12.2353 36.3484 12.4071 36.4925 12.6362C36.7267 12.9607 36.8348 12.9989 37.1411 12.8271C37.5554 12.5789 38.24 12.8271 38.24 13.2088C38.24 13.3425 38.4202 13.3807 38.7084 13.3043C39.0507 13.2088 39.3029 13.3043 39.6992 13.667C40.0235 13.9343 40.4739 14.1442 40.7801 14.1442C41.1945 14.1442 41.3926 14.2779 41.6268 14.736C41.9894 15.419 42.138 15.7202 42.3308 15.7563C42.4828 15.7847 42.6623 15.6482 42.996 15.4041C43.3743 15.1369 43.8427 14.8696 44.0588 14.8124C44.275 14.736 44.9056 14.4878 45.464 14.2206C46.0225 13.9724 46.617 13.8197 46.7791 13.877C47.0854 13.9915 47.5357 13.7434 48.3104 13.018C48.5446 12.808 48.7968 12.6171 48.8869 12.6171C48.9589 12.6171 49.3553 12.3116 49.7696 11.9489C50.1839 11.5862 50.6704 11.2808 50.8505 11.2808C51.0126 11.2808 51.3729 11.109 51.6251 10.899C52.1116 10.4981 52.7421 10.4027 52.9222 10.7081C52.9763 10.8036 53.1925 10.899 53.3906 10.899C53.5888 10.899 54.1292 11.2045 54.5796 11.5672C55.03 11.9299 55.5524 12.2353 55.7506 12.2353C55.9307 12.2353 56.3631 12.3689 56.7054 12.5025C57.1738 12.7125 57.3359 12.9034 57.3359 13.247C57.3359 13.5334 57.5161 13.8388 57.7863 14.0297C58.5069 14.526 58.8311 15.1942 58.597 15.6523C58.4889 15.8814 58.2907 16.0532 58.1646 16.0532C57.7863 16.0532 57.6782 17.2176 58.0205 17.7712C58.2186 18.0958 58.2907 18.573 58.2547 19.2411C58.2186 20.3101 58.2006 21.2264 58.2547 23.899C58.2907 25.617 58.0745 26.3615 57.5521 26.3615C57.2819 26.3615 57.2458 26.5333 57.2999 27.6214C57.3539 28.4232 57.2819 29.0722 57.1377 29.3586C56.9576 29.7213 56.9576 29.8931 57.1197 30.1794C57.2458 30.3894 57.3359 30.7712 57.3359 31.0384C57.3359 31.3057 57.498 31.8593 57.6962 32.2792C57.8944 32.6992 58.0565 33.2337 58.0565 33.501C58.0565 33.7682 58.1286 34.0355 58.2367 34.0928C58.4528 34.2264 58.2727 35.9063 58.0025 36.2499C57.8944 36.4026 57.6241 36.4789 57.3899 36.4217C56.7774 36.3071 56.8495 36.8416 57.6602 38.1397C58.0745 38.7888 58.4528 39.7242 58.597 40.3923C58.7231 41.0222 59.1374 42.1294 59.5157 42.8739C61.029 45.8901 61.4433 49.498 60.4885 51.6169C60.1462 52.3805 59.912 52.705 59.6598 52.705C59.3896 52.705 59.3176 52.8386 59.3176 53.335C59.3176 53.6786 59.1914 54.1367 59.0473 54.3467C58.9032 54.5376 58.7771 55.0721 58.7771 55.5303C58.7771 55.9693 58.705 56.4847 58.597 56.6756C58.5069 56.8474 58.3447 57.3628 58.2367 57.8019C58.0745 58.4891 57.9664 58.6227 57.6061 58.6227C57.2278 58.6227 57.1558 58.7182 57.1558 59.2336C57.1558 59.9208 57.0837 60.0736 56.4892 60.589C56.1829 60.8753 56.0388 60.8944 55.7326 60.7226C55.4083 60.5508 55.3543 60.5699 55.3543 60.9135C55.3543 61.658 54.8498 62.6315 54.4715 62.6315C53.9851 62.6315 52.9042 63.8724 52.634 64.7314C52.3638 65.5904 52.1476 65.8768 51.7513 65.8768C51.5711 65.8768 51.2468 66.1822 51.0487 66.564C50.6884 67.1939 50.6163 67.2512 50.0398 67.1367C49.5354 67.0221 49.4093 67.0794 49.3192 67.3848C49.1751 67.8811 48.2023 68.7402 47.788 68.7402C47.6258 68.7402 47.3736 68.6066 47.2475 68.4538C46.9593 68.0911 46.635 68.3393 46.1666 69.2938C45.9504 69.771 45.6081 70.0955 45.0677 70.3437C44.6353 70.5537 44.0588 70.9736 43.8066 71.2982C43.3563 71.8518 43.3022 71.8709 42.6357 71.6418C41.9691 71.4318 41.9151 71.4509 41.4287 71.9854C41.1584 72.3099 40.8162 72.5581 40.69 72.5581C40.5639 72.5581 40.2937 72.8826 40.0956 73.2835C39.393 74.5816 38.9966 74.9061 38.24 74.7725C37.6815 74.677 37.5014 74.7343 37.1591 75.1352C36.6907 75.6697 36.0602 75.746 35.7179 75.3261C35.5378 75.0779 35.4117 75.097 34.7991 75.4788C34.4208 75.7078 34.0966 75.9751 34.0966 76.0705C34.0966 76.1469 33.8804 76.5096 33.6102 76.8532C33.3219 77.1777 32.9616 77.7313 32.7995 78.0558C32.5833 78.4758 32.3311 78.6858 31.8627 78.7813C31.5024 78.8385 31.1241 79.0676 31.016 79.2585C30.9259 79.4685 30.6557 79.6212 30.4395 79.6212C29.5388 79.6212 29.3046 79.8503 28.5119 81.492C27.9534 82.6755 27.377 83.5154 26.5303 84.3936C23.9541 87.1043 22.4769 87.9633 20.8015 87.7342C20.153 87.6388 19.9368 87.696 19.2522 88.2306C17.811 89.3187 16.2797 89.185 14.6584 87.8297C13.5955 86.9516 13.1451 86.188 12.6767 84.5654C11.9381 82.0265 12.0642 79.6212 13.0911 76.9487C13.3253 76.376 13.5595 75.6506 13.6315 75.3642L13.7576 74.8297L12.6227 74.9443C11.9922 75.0206 10.9473 75.2306 10.2807 75.4406C9.61418 75.6506 8.83954 75.8033 8.56931 75.7842C8.29909 75.7651 7.70459 75.8224 7.25422 75.8987C6.13729 76.0896 4.588 75.6315 3.52511 74.7915C3.03871 74.4288 2.39017 73.9898 2.0659 73.818C1.74163 73.6462 1.3453 73.2071 1.18316 72.8444C0.91294 72.2526 0.930955 72.0999 1.30927 70.4201C1.90376 67.8239 2.48024 66.6212 5.34463 62.0589C7.8307 58.1264 9.77632 54.4612 9.77632 53.7358C9.77632 53.5449 9.92044 52.8959 10.0826 52.2659C10.3528 51.2351 10.3528 51.1015 10.1006 50.9106C9.93845 50.7961 9.7583 50.2425 9.68624 49.6889C9.61418 49.1544 9.48808 48.6389 9.37999 48.5817C9.2719 48.5053 9.25388 48.1235 9.32594 47.6272C9.41602 46.9591 9.37999 46.7682 9.16381 46.6727C8.74946 46.5009 8.80351 45.4892 9.25388 44.6874C9.61418 44.0575 9.6322 43.9429 9.41602 42.454C9.30793 41.5949 9.25388 40.7359 9.30793 40.5259C9.37999 40.3159 9.48808 39.1706 9.57815 37.987C9.72227 35.9826 9.70426 35.7535 9.37999 35.1809C9.07373 34.6464 9.0377 34.4555 9.21785 34.0737C9.32594 33.8064 9.41602 33.4055 9.41602 33.1574C9.41602 32.9283 9.52411 32.5656 9.66823 32.3747C9.79433 32.1838 9.86639 31.8593 9.83036 31.6684C9.77632 31.4966 9.92044 31.0193 10.1186 30.6376C10.3348 30.2558 10.4969 29.7594 10.4789 29.5304C10.3528 28.2132 12.4245 24.7198 13.5775 24.2808C14.154 24.0708 14.2801 23.5172 13.8477 23.1354C13.4514 22.7727 13.3073 21.4937 13.6135 21.0164C13.7756 20.7492 13.8477 20.3292 13.7937 19.8138C13.7216 19.1266 13.7937 18.8975 14.262 18.2676C14.5683 17.8667 14.8205 17.4276 14.8205 17.294C14.8205 17.1604 15.0727 16.7022 15.379 16.2441L15.9374 15.4232L16.1176 7.34838L15.379 5.61123C14.7845 4.19861 14.6404 3.6641 14.6404 2.72872ZM49.1031 13.7052C49.1571 13.7434 49.4994 13.5715 49.8597 13.2852C50.238 13.018 50.4722 12.808 50.3821 12.808C50.1479 12.808 49.013 13.6097 49.1031 13.7052ZM45.9504 16.225C47.842 14.7551 48.8689 13.9152 48.8689 13.8388C48.8689 13.7243 48.8148 13.7434 48.3284 14.1251C48.0762 14.316 47.4637 14.7169 46.9593 14.9842C45.9865 15.5187 45.3019 16.1677 45.5 16.3586C45.5721 16.435 45.7703 16.3777 45.9504 16.225ZM42.2574 17.5231C42.3474 17.6185 44.0048 16.4541 44.0048 16.3013C44.0048 16.2632 43.9327 16.2441 43.8607 16.2441C43.6085 16.2441 42.1673 17.4085 42.2574 17.5231ZM31.3222 62.3834C31.4664 60.7226 31.7906 58.5846 32.0248 57.6301C32.4572 55.8548 32.5112 55.1485 32.1149 56.4084C32.0068 56.7711 31.7186 57.2292 31.4844 57.4201C31.07 57.7446 31.052 57.9164 30.8539 61.3525C30.7458 63.3188 30.6016 65.3422 30.4936 65.8386C30.0972 68.0911 30.1693 68.3202 30.7097 66.4876C30.8899 65.8959 31.1601 64.0442 31.3222 62.3834ZM28.602 61.7725C28.9623 60.6081 29.4307 59.31 29.6288 58.8518C30.1152 57.8019 29.9531 57.6301 29.4307 58.6227C29.2145 59.0427 28.8182 59.6345 28.5479 59.9399C27.9534 60.6081 26.7464 62.2879 26.26 63.1279C25.053 65.1895 23.9541 66.6594 21.8283 69.0456C19.5765 71.5654 19.3963 71.8327 19.018 73.0544C18.5676 74.5625 17.5228 79.8121 17.4147 81.2438C17.2886 82.561 17.2165 82.7137 16.7661 82.6373C16.4058 82.5801 16.3518 82.4464 16.2977 81.5301C16.2617 80.9575 16.3518 79.8312 16.5139 79.0485C16.6761 78.2658 17.0003 76.6241 17.2345 75.4215C17.4687 74.2189 17.6489 73.2071 17.6309 73.1689C17.5948 73.1499 17.0544 73.3789 16.4238 73.6844C15.9772 73.9007 15.5124 74.1075 15.2217 74.2369C15.1021 74.2901 15.0119 74.3302 14.9646 74.3525C14.7304 74.4288 14.6404 74.6579 14.6404 75.1543C14.6404 75.536 14.3882 76.6432 14.0819 77.5977C12.7848 81.5874 13.3973 85.4053 15.5952 86.9706C16.9463 87.9442 17.793 87.906 18.8919 86.837C19.8827 85.8634 20.0088 85.6344 20.4232 83.8972C20.6934 82.7328 20.7114 82.4464 20.5133 81.7974C20.3691 81.3965 20.207 80.652 20.153 80.1557C20.0449 79.3921 20.0809 79.2012 20.4052 78.8576C20.7294 78.514 20.8195 78.4949 21.36 78.724L21.9364 78.9912L22.7291 77.4832C23.6118 75.8033 24.0442 75.2879 24.8549 74.8106C25.1791 74.6388 25.5394 74.238 25.7016 73.9325C26.0258 73.2835 26.3501 71.3173 26.3501 70.0383C26.3501 69.1983 26.8185 67.4803 28.602 61.7725ZM7.92077 66.1249C8.11894 65.8386 8.08291 65.7431 7.66856 65.3613C7.05605 64.8459 6.96598 64.8268 6.73178 65.2468C6.60568 65.5141 6.69575 65.6668 7.12811 66.0104C7.66856 66.4304 7.72261 66.4494 7.92077 66.1249ZM3.66923 68.0339C4.13762 68.1675 4.87624 67.1176 4.60601 66.6785C4.29976 66.144 4.10159 66.2395 3.70526 67.0985C3.32695 67.9193 3.32695 67.9384 3.66923 68.0339ZM2.93062 69.981C3.03871 69.9237 3.11077 69.7901 3.11077 69.6756C3.11077 69.5801 3.03871 69.5038 2.93062 69.5038C2.67841 69.5038 2.35414 70.8782 2.57032 71.1073C2.69642 71.2409 2.75047 71.0882 2.75047 70.7064C2.75047 70.3628 2.84054 70.0383 2.93062 69.981ZM9.05572 72.1954C9.05572 71.8899 8.94763 71.7945 8.62336 71.7945C8.38916 71.7945 8.02886 71.7372 7.84871 71.6609C7.54246 71.5272 7.54246 71.5463 7.81268 71.9854C8.191 72.6153 9.05572 72.749 9.05572 72.1954ZM21.7563 81.5301C22.1706 81.5301 22.2067 80.9956 21.8283 80.4993C21.3239 79.8121 21.0717 79.8694 21.2158 80.6138C21.378 81.4156 21.45 81.5301 21.7563 81.5301ZM19.1982 3.58774C19.0721 3.4923 18.3515 3.16777 17.5768 2.86235C16.8022 2.55691 16.1176 2.30875 16.0455 2.30875C15.9555 2.30875 15.9014 2.63327 15.9014 3.05324C15.9014 4.37042 17.6849 7.8447 18.3695 7.8447C18.4956 7.8447 18.6037 7.92106 18.6037 8.01651C18.6037 8.11196 18.8739 8.5701 19.1982 9.02825C19.5224 9.4864 20.1169 10.4791 20.4952 11.2426C21.1438 12.5025 21.1798 12.6553 20.9456 13.0561C20.8195 13.2852 20.5493 13.8006 20.3691 14.1824C20.0088 14.9842 19.8467 15.0605 19.5044 14.6215C19.3062 14.3542 19.2522 14.3733 19.054 14.6597C18.9099 14.8505 18.7118 14.9269 18.5136 14.8315C18.2253 14.7169 18.2073 14.5451 18.3154 13.2088C18.4055 12.1971 18.3695 11.4144 18.2253 10.8608L17.9912 10.04L17.847 11.8535C17.775 12.8461 17.6309 14.1061 17.5228 14.6406C17.3426 15.5569 17.3606 15.6714 17.8831 16.7404C18.3154 17.5803 18.4235 18.0194 18.3515 18.4775C18.3154 18.8212 18.3154 19.1075 18.3875 19.1075C18.4595 19.1075 18.9279 18.4394 19.4143 17.6376C20.4772 15.9005 20.8015 15.6332 21.2519 16.1105C21.5581 16.4159 21.5581 16.4732 21.2519 17.0649C21.0717 17.3894 20.4052 18.4394 19.7566 19.3557C18.5496 21.0737 18.4415 21.5319 19.1441 21.7228C19.3423 21.78 19.5044 21.9327 19.5044 22.0664C19.5044 22.41 18.8919 22.9254 18.4776 22.9254C18.0812 22.9254 17.6309 22.4863 17.811 22.2954C17.8831 22.2382 17.6849 21.8564 17.3967 21.4555C17.1084 21.0546 16.7661 20.4629 16.64 20.1192C16.4238 19.5657 16.4419 19.4511 16.7841 18.9357L17.1625 18.3821L16.7661 17.504C16.5319 17.0267 16.2977 16.645 16.2257 16.6259C16.0275 16.6259 15.0907 18.7639 15.1448 19.0693C15.1808 19.222 15.1088 19.432 15.0007 19.5657C14.9106 19.7184 14.8565 19.9665 14.9286 20.1383C14.9826 20.3101 14.8926 20.6728 14.7304 20.9592C14.5143 21.3028 14.4782 21.4937 14.6043 21.551C14.7304 21.5891 14.8205 21.78 14.8205 21.9518C14.8205 22.1427 14.9826 22.4482 15.1808 22.6391C15.8654 23.2881 15.4691 24.7007 14.4962 25.1398C13.1091 25.7506 12.0282 27.316 11.758 29.0722C11.6499 29.7403 11.5418 30.5612 11.5238 30.8857C11.4877 31.2293 11.3797 31.6111 11.2535 31.7447C11.1274 31.8784 11.0374 32.2029 11.0374 32.4701C11.0374 32.7374 10.9473 33.0619 10.8392 33.1765C10.6951 33.3292 10.6951 33.501 10.8572 33.7873C10.9653 34.0164 11.0013 34.2836 10.9473 34.3982C10.8752 34.4936 10.9113 34.7036 11.0194 34.8372C11.1635 35.0281 11.1635 35.2381 11.0194 35.639C10.6591 36.6126 10.587 37.8916 10.7311 41.9958C10.7852 43.7711 10.8572 44.1911 11.0914 44.3438C11.2535 44.4393 11.3977 44.6874 11.3977 44.8783C11.3977 45.2028 11.2716 45.2601 10.6771 45.2601C9.90242 45.2601 9.77632 45.4319 10.2447 45.8519C10.4609 46.0428 10.5149 46.3291 10.4429 46.9782C10.3528 47.8945 10.5329 48.5053 10.9113 48.5053C11.2175 48.5053 11.8841 49.4598 12.0462 50.1088C12.1183 50.4524 12.0282 50.8533 11.6859 51.4451C11.3797 51.9796 11.2175 52.5714 11.2175 53.0677C11.2175 54.2513 9.41602 57.8783 6.7498 62.1161C5.50676 64.0823 4.53395 65.724 4.56998 65.7622C4.60601 65.8004 4.82219 65.8958 5.05639 65.9531C5.39867 66.0676 5.45272 66.0295 5.45272 65.6095C5.45272 65.3232 5.56081 65.1132 5.70493 65.1132C6.10126 65.1132 6.3895 64.655 6.13729 64.3878C5.81302 64.0442 6.10126 63.5669 6.58766 63.6815C6.92995 63.7769 7.18216 63.5478 8.28107 62.1161C9.398 60.6271 10.0465 59.6536 11.1094 57.7828L11.4337 57.2483L11.812 57.6492C12.1003 57.9355 12.1543 58.1264 12.0282 58.3173C11.1094 59.7108 10.4609 60.7608 10.1186 61.4862C9.68624 62.3834 9.12778 62.9942 8.73145 63.0133C8.5513 63.0133 8.5513 63.0897 8.73145 63.3951C9.0377 63.9105 8.71343 64.2732 8.191 63.9869C7.92077 63.8342 7.77665 63.8533 7.63253 64.0251C7.48841 64.216 7.57849 64.3496 7.97482 64.5978L8.47924 64.9223L9.16381 63.7387C10.8212 60.8371 12.5146 58.2219 12.6947 58.2791C13.0911 58.4319 13.019 58.7373 12.3164 59.7108C11.5778 60.7608 9.68624 64.1969 8.71343 66.2013C8.40718 66.8694 8.10092 67.4039 8.04688 67.4039C7.86673 67.4039 6.80384 66.774 6.47957 66.4876C5.95714 65.9913 5.88508 66.4304 6.40751 66.9458C6.67774 67.213 6.85789 67.4994 6.80384 67.6139C6.65972 67.8621 6.10126 67.8239 5.86706 67.5757C5.59684 67.2894 5.16448 67.4612 4.91227 67.9766C4.75013 68.282 4.76815 68.3966 5.00234 68.492C5.16448 68.5493 5.95714 69.0265 6.76781 69.5229C7.88474 70.2292 8.42519 70.4582 8.98366 70.4582C10.1366 70.4582 10.3888 70.7828 10.2627 72.0045C10.2087 72.5772 10.1006 73.188 10.0285 73.398C9.92044 73.7034 9.9925 73.7416 10.7852 73.6653C11.9561 73.5507 15.2709 72.6153 16.1716 72.119C17.1985 71.5845 22.8702 65.8386 22.3478 65.8386C23.9871 65.1514 28.4038 58.0692 29.4127 55.8357C30.2594 53.9458 30.7458 53.2777 31.2862 53.2777C31.7546 53.2586 32.6013 52.1132 32.8355 51.1588C32.9616 50.6815 33.1598 50.3952 33.412 50.2997C34.5469 49.9179 34.601 52.5714 33.5561 56.5611C33.0337 58.5273 32.7454 60.1881 32.4932 62.5361C32.223 65.2277 32.0068 66.2585 31.3403 68.5493C30.8719 70.0764 30.2594 72.1763 29.9531 73.2453C29.6469 74.3334 29.2505 75.3261 29.0524 75.517C28.8542 75.7078 28.6921 75.9751 28.6921 76.1087C28.6921 76.2614 28.0255 77.7695 27.2148 79.4685C25.9538 82.1219 25.5755 82.7519 24.6387 83.7254C22.4409 85.9971 22.1706 86.188 21.7203 85.7107C21.5942 85.5771 21.45 85.6153 21.2339 85.8444C20.8015 86.2834 21.1258 86.5698 21.8824 86.4171C22.6751 86.2643 25.5394 83.9545 26.3501 82.8091C26.6924 82.3319 27.413 80.9956 27.9534 79.8694C28.4939 78.7431 29.0163 77.7504 29.1244 77.6741C29.2145 77.5977 29.5388 77.5977 29.827 77.655C30.2053 77.7313 30.4035 77.6741 30.6016 77.3686C30.7458 77.1586 31.1601 76.9296 31.5564 76.8532C32.241 76.7387 32.5653 76.3569 32.6914 75.517C32.7274 75.2688 33.1418 74.9061 33.8263 74.5052C34.7091 73.9898 35.0514 73.8943 35.6819 73.9898C36.2403 74.0471 36.6006 73.9707 37.015 73.7034C37.3573 73.4744 37.7536 73.3789 38.0599 73.4362C38.4742 73.5316 38.6183 73.4171 39.2128 72.4626C39.5911 71.8518 40.0415 71.3173 40.2217 71.2791C40.4739 71.2027 40.5459 71.05 40.4739 70.6682C40.4378 70.401 40.4559 70.0764 40.5279 69.981C40.7621 69.6565 41.8971 68.8165 42.6537 68.3966C43.05 68.1866 43.8247 67.5185 44.3651 66.9267C44.9056 66.3158 45.7703 65.5331 46.2927 65.1895C46.8151 64.8268 47.4997 64.1969 47.806 63.7769C48.1302 63.3569 48.4725 63.0133 48.5806 63.0133C48.6887 63.0133 49.1391 62.6697 49.5714 62.2498C50.202 61.6198 50.3281 61.3907 50.256 60.9898C50.202 60.7035 50.292 60.0926 50.4362 59.6345C50.6523 58.9473 50.7784 58.7946 51.1027 58.8518C51.3729 58.89 51.463 59.0236 51.409 59.2909C51.406 59.3252 51.4021 59.3697 51.3975 59.4225C51.3738 59.6927 51.331 60.18 51.3009 60.6271C51.2648 61.5625 50.5623 63.2042 50.0578 63.5287C49.9498 63.6242 49.7156 63.9105 49.5354 64.216C49.3553 64.5023 49.067 64.7314 48.8869 64.7314C48.7067 64.7314 48.4185 64.9223 48.2203 65.1323C48.0402 65.3613 47.5177 65.8004 47.0674 66.1249C46.617 66.4304 45.6442 67.3085 44.9056 68.053C44.1669 68.7974 43.2842 69.561 42.9599 69.7328C42.3294 70.0955 42.2033 70.4582 42.7077 70.4582C42.9059 70.4582 43.1401 70.2483 43.2482 69.981C43.3563 69.7328 43.6445 69.4656 43.8787 69.4083C44.1309 69.332 44.4912 69.0265 44.7074 68.7211C44.9236 68.4157 45.1938 68.1675 45.3199 68.1675C45.446 68.1675 45.7342 67.9193 45.9504 67.5948C46.4548 66.8885 47.1394 66.6785 47.5898 67.0985C47.896 67.3848 47.9321 67.3848 48.1663 67.0985C48.3104 66.9267 48.6166 66.3731 48.8689 65.8959C49.2652 65.1323 49.3913 65.0177 49.9317 64.9986C50.4542 64.9986 50.5983 64.8841 50.8325 64.3878C50.9766 64.0442 51.2648 63.7196 51.481 63.6624C52.0215 63.5097 52.8141 62.3834 53.1564 61.238C53.4086 60.4172 53.5347 60.2263 53.9131 60.1881C54.2553 60.1499 54.4715 59.9208 54.7237 59.3291C54.9579 58.7946 55.2101 58.5082 55.4804 58.47C55.7686 58.4319 55.8947 58.241 55.9848 57.6492C56.0568 57.2483 56.1829 56.8665 56.273 56.8092C56.4171 56.7138 54.8859 53.3731 54.4175 52.7432C54.2013 52.495 54.5616 51.8651 54.8138 52.0369C55.102 52.2278 56.9936 56.1602 56.8855 56.332C56.8315 56.4465 56.8855 56.5229 57.0296 56.5229C57.1738 56.5229 57.3359 56.332 57.408 56.0838C57.6782 55.0339 57.5161 54.4994 56.3451 52.6477C55.6965 51.6169 55.2101 50.7006 55.2642 50.6052C55.4443 50.3188 55.8407 50.3761 55.9668 50.7197C56.219 51.426 57.7683 53.6595 57.9484 53.6022C58.1826 53.5259 58.3267 51.5596 58.0925 51.5596C58.0025 51.5596 57.444 50.8915 56.8675 50.0897C56.273 49.2689 55.5344 48.2953 55.2101 47.8945C54.6337 47.2072 54.5796 46.7873 55.066 46.7873C55.2101 46.7873 55.8046 47.4554 56.3991 48.2572C58.669 51.3115 59.0113 51.5978 59.5698 50.7579C59.9481 50.1852 59.9481 48.0472 59.5698 46.4246C59.4076 45.7373 58.9212 44.4202 58.4889 43.523C58.0565 42.6067 57.6061 41.3659 57.462 40.755C57.3179 40.0869 56.9035 39.1133 56.4532 38.3879C55.7866 37.2998 55.6965 37.0516 55.8046 36.3835C55.9127 35.5817 56.3271 34.9518 56.7414 34.9518C56.8675 34.9518 56.9756 34.8182 56.9756 34.6464C56.9756 34.3218 56.4352 32.1074 55.9307 30.4085C55.6785 29.5495 55.6785 29.3204 55.8767 28.7859C56.0208 28.4614 56.1289 27.5832 56.1469 26.8769C56.1649 25.7888 56.237 25.5216 56.5252 25.3116C57.2819 24.7389 57.3359 24.6625 57.1558 24.1471C57.0477 23.8608 57.0477 22.7727 57.1377 21.2455C57.2638 19.2984 57.2458 18.7257 57.0477 18.3057C56.7054 17.5994 56.7234 15.6905 57.0657 15.2896C57.3179 14.9842 57.2999 14.9269 56.9035 14.6406C56.6513 14.4688 56.3271 14.087 56.1829 13.7815C55.9848 13.3997 55.7146 13.1898 55.2822 13.1134C54.9399 13.037 54.5796 12.8652 54.4535 12.7125C54.3454 12.5789 54.1472 12.4834 54.0211 12.5407C53.877 12.598 53.6428 12.5025 53.4807 12.3116C52.9943 11.7962 51.9314 11.8153 51.3369 12.3498L50.8145 12.808H51.499C52.9583 12.808 54.7057 14.2397 55.6425 16.2059C56.1109 17.1604 56.1649 17.504 56.1649 19.0121C56.1649 21.1501 55.6965 22.8109 54.5256 24.8916C53.805 26.1515 53.6789 26.5715 53.5708 27.755C53.4807 28.9004 53.4086 29.1295 53.1204 29.1868C52.9222 29.244 52.67 29.1295 52.5439 28.9577C52.3638 28.6713 52.3277 28.6904 52.2377 29.0531C52.0935 29.5876 51.5351 29.454 51.3729 28.8431C51.3138 28.6282 51.2824 28.5141 51.2527 28.5146C51.2191 28.5152 51.1877 28.6626 51.1207 28.9768C51.0307 29.3967 50.8865 29.6067 50.6704 29.6067C50.4181 29.6067 50.3281 29.8549 50.202 30.8857C50.0578 32.012 49.9858 32.1838 49.4994 32.4892C48.2563 33.2528 47.9321 32.7374 48.0041 30.1985C48.0582 28.595 48.0762 28.5568 48.4905 28.5568C48.8508 28.5568 48.9769 28.6904 49.1031 29.2249L49.2832 29.8931L49.4093 29.3013C49.5714 28.5377 49.7336 28.2705 50.0398 28.2705C50.1659 28.2705 50.3281 28.0987 50.4001 27.9078C50.4542 27.6978 50.6884 27.4687 50.9045 27.3923C51.1207 27.316 51.409 27.0869 51.5531 26.896C51.7152 26.6288 51.9134 26.5524 52.2016 26.6288C52.5439 26.7242 52.634 26.6478 52.7241 26.1324C52.7961 25.7888 53.0303 25.2161 53.2825 24.8343C54.1472 23.4981 54.8498 21.2264 54.9579 19.4702C55.03 17.9621 54.994 17.7521 54.5616 16.7977C54.2914 16.225 53.9311 15.595 53.7689 15.4041C53.2465 14.7933 51.8774 13.9533 51.391 13.9533C50.9045 13.9533 48.0582 15.7287 47.2475 16.5304C46.9953 16.7786 46.4008 17.1604 45.8964 17.3894C45.41 17.6185 44.8335 17.9621 44.6353 18.153C44.0048 18.783 43.2482 19.1075 42.978 18.8784C42.6717 18.6303 41.843 19.3557 40.654 20.9592C40.1676 21.6273 39.6272 22.1618 39.447 22.1618C38.8525 22.1618 38.9066 21.6082 39.5731 20.6919C39.9334 20.2147 40.2217 19.6993 40.2217 19.5466C40.2217 19.4129 40.5459 18.6875 40.9423 17.943L41.6629 16.5877L41.1945 15.9577C40.9242 15.5759 40.636 15.3469 40.4739 15.4232C40.3478 15.4805 39.9334 15.3469 39.5911 15.1178C39.2308 14.8887 38.7084 14.7169 38.4202 14.7169C38.1319 14.7169 37.8437 14.6215 37.7896 14.5069C37.7176 14.4115 37.4473 14.3733 37.1591 14.4306C36.7988 14.5069 36.5286 14.4306 36.1503 14.087C35.862 13.8388 35.4117 13.5715 35.1414 13.4952C34.8532 13.4379 34.637 13.3043 34.637 13.2088C34.637 13.1325 33.8984 12.9416 32.9976 12.7889C31.6465 12.5789 31.3042 12.4644 31.0881 12.1017C30.9439 11.8726 30.7278 11.7199 30.6016 11.7771C30.4755 11.8344 30.1333 11.6626 29.845 11.4144C29.5568 11.1663 29.0343 10.8227 28.7101 10.6318C28.1516 10.3454 28.0615 10.3454 27.9354 10.6127C27.7012 11.0517 27.1788 10.9563 26.6924 10.4027C25.7196 9.27641 22.1346 5.89757 20.8195 4.86674C20.5154 4.62691 20.2196 4.39295 19.9648 4.19146C19.5707 3.87975 19.2748 3.64572 19.1982 3.58774ZM24.7288 14.946C24.7288 15.0796 24.4405 15.7859 24.0982 16.5113C23.3957 18.0003 23.3236 18.4012 23.792 18.3057C24.1163 18.2485 25.4314 15.6523 25.4494 15.0414C25.4494 14.8505 25.3233 14.7169 25.0891 14.7169C24.8909 14.7169 24.7288 14.8315 24.7288 14.946ZM30.998 16.3777C29.6829 17.8667 27.8454 20.8447 28.0615 21.2074C28.3137 21.6273 28.62 21.341 29.1785 20.1956C29.5027 19.5466 30.2954 18.3439 30.9619 17.5231C31.9888 16.225 32.241 15.6714 31.7726 15.6714C31.7006 15.6714 31.3583 15.9959 30.998 16.3777ZM31.3042 18.6684C30.7638 19.3748 30.3134 20.062 30.3134 20.1765C30.3134 20.6538 30.7458 20.6919 31.016 20.2338C31.1781 19.9856 31.6465 19.3175 32.0789 18.7639C32.7815 17.8476 32.9076 17.3895 32.4752 17.3895C32.3851 17.3895 31.8627 17.9621 31.3042 18.6684ZM22.2967 18.9548C22.0986 19.6038 21.36 23.8035 21.432 23.9181C21.468 24.0135 21.6122 24.0708 21.7563 24.0708C21.9184 24.0708 22.0445 23.7463 22.1166 23.1545C22.1886 22.6581 22.3868 21.551 22.585 20.6728C22.7651 19.7947 22.9273 18.993 22.9273 18.8975C22.9273 18.6303 22.3868 18.6875 22.2967 18.9548ZM48.1122 21.0546C46.3828 23.1163 45.428 24.3571 44.8515 25.3498C44.4732 25.9797 44.203 26.2088 43.6265 26.3615C43.032 26.5333 42.8338 26.5333 42.5996 26.3042C42.4195 26.1515 42.1673 25.9988 42.0232 25.9415C41.879 25.8843 41.3026 25.4452 40.7441 24.968C39.7893 24.1471 39.5191 23.9944 38.9966 24.0517C38.5463 24.0899 38.8705 24.9107 39.5011 25.3498C41.2305 26.5333 41.879 27.2205 42.5636 28.6522L43.2482 30.1031L42.7798 30.084C42.0232 30.084 42.0772 30.6566 42.9059 31.6111C43.3923 32.1647 43.6445 32.642 43.6445 32.9665C43.6445 33.5773 44.293 35.009 44.7614 35.4672C45.0497 35.7344 45.1398 35.7535 45.3559 35.5054C45.5721 35.2763 45.5541 35.1236 45.2298 34.3791C45.0317 33.9019 44.8335 32.9856 44.7975 32.3556C44.7254 31.2102 44.7434 31.1721 45.2659 30.9048C45.8603 30.5994 46.4008 29.664 46.8151 28.2132C46.9953 27.5832 47.2115 27.2396 47.4997 27.1251C47.878 26.9724 48.5086 25.7697 48.5086 25.178C48.5086 25.0634 48.8869 24.1471 49.3553 23.1736C49.9858 21.8182 50.202 21.1501 50.202 20.4819C50.22 19.7184 50.1659 19.5847 49.8417 19.5275C49.5534 19.4893 49.1211 19.8711 48.1122 21.0546ZM25.4313 24.5098C24.6927 25.7506 24.3865 26.4379 23.7379 28.3468C22.9993 30.4848 22.1706 33.9591 22.3148 34.2073C22.5129 34.5509 22.8732 34.0164 22.9993 33.1765C23.3236 31.0384 25.1251 26.037 26.0799 24.7198C26.5303 24.0899 26.5483 23.689 26.1159 23.689C25.9898 23.689 25.6836 24.0517 25.4313 24.5098ZM54.5616 26.896C54.5075 26.9915 54.4175 27.6596 54.3454 28.385C54.2914 29.1104 54.0752 29.9885 53.895 30.3321C53.4807 31.1148 53.4627 31.4966 53.859 32.7947C54.1473 33.7301 54.1473 33.8255 53.859 34.0546C53.5888 34.2646 53.5888 34.3791 53.859 35.6199C54.0031 36.3453 54.2914 37.2807 54.4895 37.6816C54.7417 38.2161 54.7778 38.4833 54.6337 38.7697C54.4715 39.0751 54.5796 39.3996 55.2462 40.5259C55.6785 41.2895 56.1469 41.9194 56.273 41.9194C56.6513 41.9194 56.6693 41.3277 56.309 40.755C56.1289 40.4496 55.9848 39.9914 55.9668 39.7242C55.9487 39.4569 55.6605 38.5215 55.3002 37.6243C54.7057 36.1353 54.6517 35.8872 54.7417 34.7609C54.8318 33.9019 54.7778 33.2146 54.5616 32.5083C54.2914 31.5157 54.2914 31.4393 54.6517 30.7139C55.084 29.8167 55.2462 26.9342 54.8678 26.8006C54.7598 26.7624 54.6156 26.8006 54.5616 26.896ZM15.7753 30.9621C14.8565 31.153 14.1179 31.5348 13.6315 32.1265C13.019 32.8138 12.8389 33.291 13.037 33.6728C13.3253 34.2073 13.8837 34.0546 14.3161 33.3292C14.8385 32.4892 15.361 32.2029 16.4058 32.2029C17.2345 32.1838 17.2525 32.2029 17.4867 32.9474C17.793 33.8828 17.6309 40.1441 17.2706 41.6331C17.0724 42.4158 17.0724 42.6258 17.2706 42.7976C17.4147 42.9121 17.6309 42.9694 17.757 42.9121C18.4595 42.6258 19.0901 35.1045 18.5856 32.6992C18.2794 31.1721 17.4147 30.6376 15.7753 30.9621ZM28.7101 34.5891C28.0976 35.1236 27.6112 35.6199 27.6112 35.7154C27.6112 35.7917 27.3229 36.2499 26.9626 36.6889C26.6023 37.1471 26.242 37.7007 26.17 37.9107C26.0979 38.1397 26.206 39.1324 26.4402 40.335C26.9626 42.9503 26.9806 43.0075 27.467 42.9312C28.0435 42.8548 28.0796 42.1103 27.6112 40.1632C27.395 39.266 27.2689 38.3497 27.3229 38.1016C27.377 37.8725 27.7193 37.4525 28.0615 37.1662C28.4038 36.8798 28.6921 36.5362 28.6921 36.4026C28.6921 36.1353 29.5027 35.2763 30.0792 34.9709C30.6377 34.6654 30.962 34.8563 32.2951 36.1735C32.9436 36.8226 33.7363 37.4716 34.0425 37.6434C34.3488 37.8152 34.9253 38.4833 35.3396 39.1324C35.844 39.9151 36.3304 40.4305 36.8529 40.6977C37.2672 40.9268 37.8437 41.3086 38.1139 41.5567C38.4021 41.8049 38.7805 42.0149 38.9606 42.0149C39.3029 42.0149 39.8614 41.5377 39.8614 41.2513C39.8614 41.0986 37.6996 39.6669 37.1411 39.4378C36.997 39.3805 36.6187 38.9224 36.3304 38.4452C35.7179 37.4143 35.1234 36.7653 34.4028 36.3644C34.1146 36.1926 33.5021 35.639 33.0517 35.1045C32.0248 33.9591 31.4664 33.6155 30.5116 33.6155C29.9171 33.6155 29.6288 33.7873 28.7101 34.5891ZM12.0642 33.94C12.0102 34.0355 11.794 34.8182 11.5778 35.7154C11.2716 36.9562 11.1815 37.9107 11.1635 39.7242C11.1635 41.9004 11.2175 42.2631 11.7219 43.9429C12.1183 45.1837 12.2984 46.1764 12.3164 46.9972L12.3344 48.219L12.7668 47.2263C13.0731 46.5009 13.1451 46.1 13.037 45.7946C12.9109 45.451 12.983 45.2028 13.3433 44.6874C13.8117 44.0193 14.7845 42.9694 14.9466 42.9694C15.0727 42.9694 14.8205 44.3247 14.5143 45.2601C14.3521 45.7373 13.8837 46.9782 13.4694 48.0281C12.8209 49.6316 12.2444 51.6933 12.5326 51.3687C12.7848 51.0824 15.0367 47.8372 15.1628 47.5699C15.3249 47.2645 15.7573 45.2219 16.0816 43.2557C16.4419 41.0604 16.4779 40.1823 16.2077 38.9606C16.0636 38.2734 15.9735 37.4525 16.0275 37.1471C16.0996 36.6317 15.9915 36.4408 15.2889 35.7535C14.8385 35.3145 14.3882 34.9518 14.2981 34.9518C14.0098 34.9518 13.7756 35.4099 13.6495 36.269C13.5775 36.7271 13.3253 37.548 13.0911 38.0825C12.4786 39.4951 12.4786 41.4804 13.1271 42.8167C13.4874 43.5611 13.5415 43.8284 13.3613 43.9429C13.019 44.172 12.9289 44.0384 12.5506 42.8357C12.0822 41.3468 12.0822 36.269 12.5326 34.9709C12.6947 34.5127 12.7848 34.0737 12.7308 33.9782C12.6227 33.7682 12.1723 33.7491 12.0642 33.94ZM48.0221 37.7579C47.6799 37.8916 47.7339 38.407 48.1302 38.846C48.3284 39.0751 48.995 40.335 49.6435 41.6713C50.6343 43.7139 50.7604 44.1338 50.5623 44.3438C50.3461 44.5729 50.3461 44.7447 50.5803 45.5465C50.7244 46.0619 50.7965 46.52 50.7604 46.5582C50.7244 46.6155 50.4722 46.5009 50.22 46.3291C49.6795 45.9473 49.2291 46.0428 49.2291 46.52C49.2291 46.6918 49.4453 47.4554 49.6975 48.1999C50.0398 49.2116 50.1839 49.9561 50.202 51.1206C50.22 52.7623 50.3101 53.0104 50.7604 52.8386C50.9226 52.7623 51.0307 52.4759 51.0307 52.0369C51.0307 51.6742 51.1207 51.216 51.2288 51.0251C51.3729 50.777 51.2829 50.2997 50.8865 49.0207L50.3641 47.3218L50.7784 47.4172C51.5531 47.5699 51.6612 47.3218 51.409 45.9282C51.1928 44.7638 51.1928 44.6492 51.499 44.4202C51.8053 44.172 51.7873 44.1147 51.3189 43.2366C51.0667 42.7212 50.5443 41.6522 50.202 40.8695C49.4633 39.2278 48.6887 37.8534 48.4185 37.7579C48.3284 37.7198 48.1302 37.7198 48.0221 37.7579ZM28.9263 38.1206C28.8722 38.2924 28.9803 38.7888 29.1785 39.2278C29.4127 39.7242 29.5207 40.2396 29.4667 40.545C29.3766 40.9841 29.4487 41.0986 29.9531 41.2704L30.5116 41.4804L30.0612 41.9958C29.3226 42.7976 28.638 44.592 28.7641 45.3556C28.8542 45.871 28.7821 46.1573 28.3318 46.8636C27.7553 47.7799 26.9806 48.5053 26.6203 48.5053C26.26 48.5053 24.963 49.8034 24.7288 50.3952C24.2063 51.7314 25.3052 52.056 26.0979 50.7961C26.4222 50.2997 26.7104 50.0325 26.9806 50.0325C27.1968 50.0325 27.8093 49.7843 28.3498 49.4789C29.1604 49.0207 29.6108 48.9062 31.1781 48.8108C33.1598 48.6771 34.1866 48.3717 35.1775 47.6463C35.5197 47.3981 36.2584 47.0927 36.7988 46.9782C37.3393 46.8636 38.0238 46.6345 38.2941 46.4627C38.5823 46.31 39.0507 46.1573 39.3569 46.1382C39.8253 46.1 40.2036 45.7755 40.2217 45.4128C40.2217 45.0883 39.5911 44.6874 39.0687 44.6874C38.6724 44.6874 38.3661 44.5347 38.1139 44.2293C37.8257 43.8857 37.4654 43.7329 36.7267 43.6375C35.7359 43.5039 35.2675 43.2175 34.1866 42.1485C33.8804 41.8431 32.8715 40.9077 31.9348 40.0678C30.998 39.2087 30.1152 38.3497 29.9891 38.1588C29.7009 37.7388 29.0884 37.7007 28.9263 38.1206ZM54.7237 41.4422C54.4535 41.9004 57.5701 46.5964 58.1646 46.5964C58.5429 46.5964 58.4708 45.9473 58.0385 45.5274C57.5161 45.031 56.201 43.0648 55.7326 42.0531C55.3723 41.2895 54.9579 41.0413 54.7237 41.4422ZM26.206 44.6302C25.3413 45.6037 25.1071 46.2146 25.6295 46.2146C25.9358 46.2146 27.9715 44.0956 27.9715 43.7902C27.9715 43.1984 27.1248 43.5993 26.206 44.6302ZM54.8318 43.7902C54.6877 44.0002 54.8138 44.3247 55.4083 45.2028C56.8135 47.3409 57.6061 48.2953 57.9304 48.3144C58.3808 48.3144 58.3087 47.8754 57.7683 47.3409C57.5161 47.0927 56.8495 46.1764 56.309 45.3174C55.1921 43.523 55.1201 43.4466 54.8318 43.7902ZM48.2744 44.2293C48.1122 44.4011 48.1122 47.0163 48.2563 47.9708C48.3284 48.4099 48.4725 48.6962 48.6166 48.6962C48.8328 48.6962 48.8508 48.3144 48.7608 46.5391C48.6527 44.4774 48.5446 43.962 48.2744 44.2293ZM16.4419 44.9547C16.4419 45.9664 15.2168 48.7917 14.19 50.1279C13.8657 50.5479 13.3433 51.3497 13.037 51.8842C12.7128 52.4378 12.3344 52.9532 12.1903 53.0486C12.0642 53.125 11.9021 53.4877 11.83 53.8504L11.7219 54.5185L12.5146 53.6404C13.6856 52.3423 16.0455 48.658 16.55 47.3409C16.7841 46.7109 17.0364 45.8137 17.1084 45.3556C17.1985 44.5729 17.1805 44.4965 16.8202 44.4965C16.55 44.4965 16.4419 44.6111 16.4419 44.9547ZM26.3681 46.1C24.981 47.589 24.7288 47.9899 25.053 48.1999C25.2332 48.3144 28.3318 45.2219 28.3318 44.9356C28.3318 44.3056 27.7012 44.6683 26.3681 46.1ZM23.756 49.8798C22.7471 51.6169 22.549 52.0178 22.639 52.2469C22.8192 52.7623 23.2876 52.5141 23.6659 51.6933C23.8821 51.2542 24.2063 50.6624 24.4045 50.3761C24.6027 50.0707 24.6927 49.7652 24.6387 49.6507C24.4405 49.3262 24.0262 49.4407 23.756 49.8798ZM47.6618 52.0751C47.5357 52.1323 47.4277 52.3232 47.4277 52.5141C47.4277 52.8768 47.7339 53.0868 48.1122 52.9532C48.2203 52.8959 48.3284 52.705 48.3284 52.5141C48.3284 52.1514 48.0221 51.9414 47.6618 52.0751ZM20.9816 54.6712C20.3691 55.6639 19.7026 56.6184 19.5044 56.8092C19.0901 57.2101 19.018 57.8592 19.3963 57.8592C19.7206 57.8592 22.8012 53.335 22.657 53.0868C22.4048 52.6477 22.0265 52.9914 20.9816 54.6712ZM50.6163 54.3467C50.5442 54.4231 50.4902 54.8048 50.4902 55.2057C50.4902 55.9311 50.1659 57.4774 49.7876 58.4891C49.6795 58.7946 49.6255 59.1191 49.6975 59.2145C49.9137 59.5963 50.274 59.3291 50.6523 58.47C51.3009 57.0192 51.2648 53.6595 50.6163 54.3467ZM16.0275 68.6638C15.9555 68.7402 15.9014 68.9693 15.9014 69.1601C15.9014 69.4083 16.0275 69.5038 16.3698 69.5038C16.7481 69.5038 16.8202 69.4274 16.7661 69.0838C16.7121 68.6447 16.2797 68.4157 16.0275 68.6638ZM10.8032 69.1792C10.6591 69.5801 10.9473 69.9237 11.3256 69.8474C11.812 69.7519 11.776 69.0456 11.2896 68.9693C11.0734 68.9311 10.8572 69.0265 10.8032 69.1792ZM13.7216 69.2365C13.5234 69.5038 13.5415 69.5992 13.8837 69.8856C14.0999 70.0764 14.2801 70.3246 14.2801 70.4201C14.2801 70.7255 14.8385 70.8591 15.1088 70.63C15.451 70.3246 15.415 69.9046 15.0547 69.7519C14.8746 69.6756 14.6224 69.4656 14.4962 69.2747C14.208 68.8547 14.0279 68.8356 13.7216 69.2365ZM12.1903 70.9164C12.0282 71.3745 12.2624 71.8327 12.6047 71.7563C13.037 71.68 13.037 70.7637 12.6047 70.6873C12.4425 70.6491 12.2444 70.7637 12.1903 70.9164Z" fill="#3E0736"/>
<path d="M24.7288 14.946C24.7288 15.0796 24.4405 15.7859 24.0982 16.5113C23.3957 18.0003 23.3236 18.4012 23.792 18.3057C24.1163 18.2485 25.4314 15.6523 25.4494 15.0414C25.4494 14.8505 25.3233 14.7169 25.0891 14.7169C24.8909 14.7169 24.7288 14.8315 24.7288 14.946Z" stroke="#FF00D6" stroke-width="0.3" stroke-linejoin="round" style="mix-blend-mode:lighten"/>
<path d="M30.998 16.3777C29.6829 17.8667 27.8454 20.8447 28.0615 21.2074C28.3137 21.6273 28.62 21.341 29.1785 20.1956C29.5027 19.5466 30.2954 18.3439 30.9619 17.5231C31.9888 16.225 32.241 15.6714 31.7726 15.6714C31.7006 15.6714 31.3583 15.9959 30.998 16.3777Z" stroke="#FF00D6" stroke-width="0.3" stroke-linejoin="round" style="mix-blend-mode:lighten"/>
<path d="M31.3042 18.6684C30.7638 19.3748 30.3134 20.062 30.3134 20.1765C30.3134 20.6538 30.7458 20.6919 31.016 20.2338C31.1781 19.9856 31.6465 19.3175 32.0789 18.7639C32.7815 17.8476 32.9076 17.3895 32.4752 17.3895C32.3851 17.3895 31.8627 17.9621 31.3042 18.6684Z" stroke="#FF00D6" stroke-width="0.3" stroke-linejoin="round" style="mix-blend-mode:lighten"/>
<path d="M22.2967 18.9548C22.0986 19.6038 21.36 23.8035 21.432 23.9181C21.468 24.0135 21.6122 24.0708 21.7563 24.0708C21.9184 24.0708 22.0445 23.7463 22.1166 23.1545C22.1886 22.6581 22.3868 21.551 22.585 20.6728C22.7651 19.7947 22.9273 18.993 22.9273 18.8975C22.9273 18.6303 22.3868 18.6875 22.2967 18.9548Z" stroke="#FF00D6" stroke-width="0.3" stroke-linejoin="round" style="mix-blend-mode:lighten"/>
<path d="M48.1122 21.0546C46.3828 23.1163 45.428 24.3571 44.8515 25.3498C44.4732 25.9797 44.203 26.2088 43.6265 26.3615C43.032 26.5333 42.8338 26.5333 42.5996 26.3042C42.4195 26.1515 42.1673 25.9988 42.0232 25.9415C41.879 25.8843 41.3026 25.4452 40.7441 24.968C39.7893 24.1471 39.5191 23.9944 38.9966 24.0517C38.5463 24.0899 38.8705 24.9107 39.5011 25.3498C41.2305 26.5333 41.879 27.2205 42.5636 28.6522L43.2482 30.1031L42.7798 30.084C42.0232 30.084 42.0772 30.6566 42.9059 31.6111C43.3923 32.1647 43.6445 32.642 43.6445 32.9665C43.6445 33.5773 44.293 35.009 44.7614 35.4672C45.0497 35.7344 45.1398 35.7535 45.3559 35.5054C45.5721 35.2763 45.5541 35.1236 45.2298 34.3791C45.0317 33.9019 44.8335 32.9856 44.7975 32.3556C44.7254 31.2102 44.7434 31.1721 45.2659 30.9048C45.8603 30.5994 46.4008 29.664 46.8151 28.2132C46.9953 27.5832 47.2115 27.2396 47.4997 27.1251C47.878 26.9724 48.5086 25.7697 48.5086 25.178C48.5086 25.0634 48.8869 24.1471 49.3553 23.1736C49.9858 21.8182 50.202 21.1501 50.202 20.4819C50.22 19.7184 50.1659 19.5847 49.8417 19.5275C49.5534 19.4893 49.1211 19.8711 48.1122 21.0546Z" stroke="#FF00D6" stroke-width="0.3" stroke-linejoin="round" style="mix-blend-mode:lighten"/>
<path d="M25.4313 24.5098C24.6927 25.7506 24.3865 26.4379 23.7379 28.3468C22.9993 30.4848 22.1706 33.9591 22.3148 34.2073C22.5129 34.5509 22.8732 34.0164 22.9993 33.1765C23.3236 31.0384 25.1251 26.037 26.0799 24.7198C26.5303 24.0899 26.5483 23.689 26.1159 23.689C25.9898 23.689 25.6836 24.0517 25.4313 24.5098Z" stroke="#FF00D6" stroke-width="0.3" stroke-linejoin="round" style="mix-blend-mode:lighten"/>
<path d="M54.5616 26.896C54.5075 26.9915 54.4175 27.6596 54.3454 28.385C54.2914 29.1104 54.0752 29.9885 53.895 30.3321C53.4807 31.1148 53.4627 31.4966 53.859 32.7947C54.1473 33.7301 54.1473 33.8255 53.859 34.0546C53.5888 34.2646 53.5888 34.3791 53.859 35.6199C54.0031 36.3453 54.2914 37.2807 54.4895 37.6816C54.7417 38.2161 54.7778 38.4833 54.6337 38.7697C54.4715 39.0751 54.5796 39.3996 55.2462 40.5259C55.6785 41.2895 56.1469 41.9194 56.273 41.9194C56.6513 41.9194 56.6693 41.3277 56.309 40.755C56.1289 40.4496 55.9848 39.9914 55.9668 39.7242C55.9487 39.4569 55.6605 38.5215 55.3002 37.6243C54.7057 36.1353 54.6517 35.8872 54.7417 34.7609C54.8318 33.9019 54.7778 33.2146 54.5616 32.5083C54.2914 31.5157 54.2914 31.4393 54.6517 30.7139C55.084 29.8167 55.2462 26.9342 54.8678 26.8006C54.7598 26.7624 54.6156 26.8006 54.5616 26.896Z" stroke="#FF00D6" stroke-width="0.3" stroke-linejoin="round" style="mix-blend-mode:lighten"/>
<path d="M15.7753 30.9621C14.8565 31.153 14.1179 31.5348 13.6315 32.1265C13.019 32.8138 12.8389 33.291 13.037 33.6728C13.3253 34.2073 13.8837 34.0546 14.3161 33.3292C14.8385 32.4892 15.361 32.2029 16.4058 32.2029C17.2345 32.1838 17.2525 32.2029 17.4867 32.9474C17.793 33.8828 17.6309 40.1441 17.2706 41.6331C17.0724 42.4158 17.0724 42.6258 17.2706 42.7976C17.4147 42.9121 17.6309 42.9694 17.757 42.9121C18.4595 42.6258 19.0901 35.1045 18.5856 32.6992C18.2794 31.1721 17.4147 30.6376 15.7753 30.9621Z" stroke="#FF00D6" stroke-width="0.3" stroke-linejoin="round" style="mix-blend-mode:lighten"/>
<path d="M28.7101 34.5891C28.0976 35.1236 27.6112 35.6199 27.6112 35.7154C27.6112 35.7917 27.3229 36.2499 26.9626 36.6889C26.6023 37.1471 26.242 37.7007 26.17 37.9107C26.0979 38.1397 26.206 39.1324 26.4402 40.335C26.9626 42.9503 26.9806 43.0075 27.467 42.9312C28.0435 42.8548 28.0796 42.1103 27.6112 40.1632C27.395 39.266 27.2689 38.3497 27.3229 38.1016C27.377 37.8725 27.7193 37.4525 28.0615 37.1662C28.4038 36.8798 28.6921 36.5362 28.6921 36.4026C28.6921 36.1353 29.5027 35.2763 30.0792 34.9709C30.6377 34.6654 30.962 34.8563 32.2951 36.1735C32.9436 36.8226 33.7363 37.4716 34.0425 37.6434C34.3488 37.8152 34.9253 38.4833 35.3396 39.1324C35.844 39.9151 36.3304 40.4305 36.8529 40.6977C37.2672 40.9268 37.8437 41.3086 38.1139 41.5567C38.4021 41.8049 38.7805 42.0149 38.9606 42.0149C39.3029 42.0149 39.8614 41.5377 39.8614 41.2513C39.8614 41.0986 37.6996 39.6669 37.1411 39.4378C36.997 39.3805 36.6187 38.9224 36.3304 38.4452C35.7179 37.4143 35.1234 36.7653 34.4028 36.3644C34.1146 36.1926 33.5021 35.639 33.0517 35.1045C32.0248 33.9591 31.4664 33.6155 30.5116 33.6155C29.9171 33.6155 29.6288 33.7873 28.7101 34.5891Z" stroke="#FF00D6" stroke-width="0.3" stroke-linejoin="round" style="mix-blend-mode:lighten"/>
<path d="M12.0642 33.94C12.0102 34.0355 11.794 34.8182 11.5778 35.7154C11.2716 36.9562 11.1815 37.9107 11.1635 39.7242C11.1635 41.9004 11.2175 42.2631 11.7219 43.9429C12.1183 45.1837 12.2984 46.1764 12.3164 46.9972L12.3344 48.219L12.7668 47.2263C13.0731 46.5009 13.1451 46.1 13.037 45.7946C12.9109 45.451 12.983 45.2028 13.3433 44.6874C13.8117 44.0193 14.7845 42.9694 14.9466 42.9694C15.0727 42.9694 14.8205 44.3247 14.5143 45.2601C14.3521 45.7373 13.8837 46.9782 13.4694 48.0281C12.8209 49.6316 12.2444 51.6933 12.5326 51.3687C12.7848 51.0824 15.0367 47.8372 15.1628 47.5699C15.3249 47.2645 15.7573 45.2219 16.0816 43.2557C16.4419 41.0604 16.4779 40.1823 16.2077 38.9606C16.0636 38.2734 15.9735 37.4525 16.0275 37.1471C16.0996 36.6317 15.9915 36.4408 15.2889 35.7535C14.8385 35.3145 14.3882 34.9518 14.2981 34.9518C14.0098 34.9518 13.7756 35.4099 13.6495 36.269C13.5775 36.7271 13.3253 37.548 13.0911 38.0825C12.4786 39.4951 12.4786 41.4804 13.1271 42.8167C13.4874 43.5611 13.5415 43.8284 13.3613 43.9429C13.019 44.172 12.9289 44.0384 12.5506 42.8357C12.0822 41.3468 12.0822 36.269 12.5326 34.9709C12.6947 34.5127 12.7848 34.0737 12.7308 33.9782C12.6227 33.7682 12.1723 33.7491 12.0642 33.94ZM14.5323 40.2968C14.5143 40.4496 14.4782 40.755 14.4422 40.965C14.3882 41.2704 14.4602 41.3277 14.7845 41.2895C15.0547 41.2513 15.1808 41.3277 15.1808 41.5186C15.1808 41.9576 14.3341 41.9004 14.0999 41.4613C14.0098 41.2513 13.9198 40.8123 13.9198 40.4877C13.9198 40.0105 13.9918 39.896 14.244 39.9532C14.4062 39.9914 14.5323 40.1441 14.5323 40.2968Z" stroke="#FF00D6" stroke-width="0.3" stroke-linejoin="round" style="mix-blend-mode:lighten"/>
<path d="M48.0221 37.7579C47.6799 37.8916 47.7339 38.407 48.1302 38.846C48.3284 39.0751 48.995 40.335 49.6435 41.6713C50.6343 43.7139 50.7604 44.1338 50.5623 44.3438C50.3461 44.5729 50.3461 44.7447 50.5803 45.5465C50.7244 46.0619 50.7965 46.52 50.7604 46.5582C50.7244 46.6155 50.4722 46.5009 50.22 46.3291C49.6795 45.9473 49.2291 46.0428 49.2291 46.52C49.2291 46.6918 49.4453 47.4554 49.6975 48.1999C50.0398 49.2116 50.1839 49.9561 50.202 51.1206C50.22 52.7623 50.3101 53.0104 50.7604 52.8386C50.9226 52.7623 51.0307 52.4759 51.0307 52.0369C51.0307 51.6742 51.1207 51.216 51.2288 51.0251C51.3729 50.777 51.2829 50.2997 50.8865 49.0207L50.3641 47.3218L50.7784 47.4172C51.5531 47.5699 51.6612 47.3218 51.409 45.9282C51.1928 44.7638 51.1928 44.6492 51.499 44.4202C51.8053 44.172 51.7873 44.1147 51.3189 43.2366C51.0667 42.7212 50.5443 41.6522 50.202 40.8695C49.4633 39.2278 48.6887 37.8534 48.4185 37.7579C48.3284 37.7198 48.1302 37.7198 48.0221 37.7579Z" stroke="#FF00D6" stroke-width="0.3" stroke-linejoin="round" style="mix-blend-mode:lighten"/>
<path d="M28.9263 38.1206C28.8722 38.2924 28.9803 38.7888 29.1785 39.2278C29.4127 39.7242 29.5207 40.2396 29.4667 40.545C29.3766 40.9841 29.4487 41.0986 29.9531 41.2704L30.5116 41.4804L30.0612 41.9958C29.3226 42.7976 28.638 44.592 28.7641 45.3556C28.8542 45.871 28.7821 46.1573 28.3318 46.8636C27.7553 47.7799 26.9806 48.5053 26.6203 48.5053C26.26 48.5053 24.963 49.8034 24.7288 50.3952C24.2063 51.7314 25.3052 52.056 26.0979 50.7961C26.4222 50.2997 26.7104 50.0325 26.9806 50.0325C27.1968 50.0325 27.8093 49.7843 28.3498 49.4789C29.1604 49.0207 29.6108 48.9062 31.1781 48.8108C33.1598 48.6771 34.1866 48.3717 35.1775 47.6463C35.5197 47.3981 36.2584 47.0927 36.7988 46.9782C37.3393 46.8636 38.0238 46.6345 38.2941 46.4627C38.5823 46.31 39.0507 46.1573 39.3569 46.1382C39.8253 46.1 40.2036 45.7755 40.2217 45.4128C40.2217 45.0883 39.5911 44.6874 39.0687 44.6874C38.6724 44.6874 38.3661 44.5347 38.1139 44.2293C37.8257 43.8857 37.4654 43.7329 36.7267 43.6375C35.7359 43.5039 35.2675 43.2175 34.1866 42.1485C33.8804 41.8431 32.8715 40.9077 31.9348 40.0678C30.998 39.2087 30.1152 38.3497 29.9891 38.1588C29.7009 37.7388 29.0884 37.7007 28.9263 38.1206ZM31.7546 42.7212C31.7546 42.8167 31.6285 43.0457 31.4844 43.2366C31.1421 43.7139 31.1421 44.3056 31.5024 44.8401C31.8987 45.451 32.7094 45.3937 33.1778 44.7256L33.5381 44.2102L33.5561 44.9165C33.5561 45.7373 33.2138 46.0237 32.223 46.0237C31.5384 46.0237 30.6737 45.6801 30.6737 45.4128C30.6737 45.3365 30.5116 45.2601 30.3134 45.2601C29.827 45.2601 29.863 44.821 30.4035 43.5802C30.7638 42.7594 30.9259 42.5876 31.3042 42.5876C31.5564 42.5876 31.7546 42.6448 31.7546 42.7212ZM30.2414 46.7873C30.3314 46.8827 30.7278 47.0927 31.1241 47.2454L31.8447 47.5318H30.5476C29.827 47.5508 29.2325 47.4936 29.2325 47.4172C29.2325 47.2454 29.791 46.5964 29.9531 46.5964C30.0072 46.5964 30.1333 46.6727 30.2414 46.7873Z" stroke="#FF00D6" stroke-width="0.3" stroke-linejoin="round" style="mix-blend-mode:lighten"/>
<path d="M54.7237 41.4422C54.4535 41.9004 57.5701 46.5964 58.1646 46.5964C58.5429 46.5964 58.4708 45.9473 58.0385 45.5274C57.5161 45.031 56.201 43.0648 55.7326 42.0531C55.3723 41.2895 54.9579 41.0413 54.7237 41.4422Z" stroke="#FF00D6" stroke-width="0.3" stroke-linejoin="round" style="mix-blend-mode:lighten"/>
<path d="M26.206 44.6302C25.3413 45.6037 25.1071 46.2146 25.6295 46.2146C25.9358 46.2146 27.9715 44.0956 27.9715 43.7902C27.9715 43.1984 27.1248 43.5993 26.206 44.6302Z" stroke="#FF00D6" stroke-width="0.3" stroke-linejoin="round" style="mix-blend-mode:lighten"/>
<path d="M54.8318 43.7902C54.6877 44.0002 54.8138 44.3247 55.4083 45.2028C56.8135 47.3409 57.6061 48.2953 57.9304 48.3144C58.3808 48.3144 58.3087 47.8754 57.7683 47.3409C57.5161 47.0927 56.8495 46.1764 56.309 45.3174C55.1921 43.523 55.1201 43.4466 54.8318 43.7902Z" stroke="#FF00D6" stroke-width="0.3" stroke-linejoin="round" style="mix-blend-mode:lighten"/>
<path d="M48.2744 44.2293C48.1122 44.4011 48.1122 47.0163 48.2563 47.9708C48.3284 48.4099 48.4725 48.6962 48.6166 48.6962C48.8328 48.6962 48.8508 48.3144 48.7608 46.5391C48.6527 44.4774 48.5446 43.962 48.2744 44.2293Z" stroke="#FF00D6" stroke-width="0.3" stroke-linejoin="round" style="mix-blend-mode:lighten"/>
<path d="M16.4419 44.9547C16.4419 45.9664 15.2168 48.7917 14.19 50.1279C13.8657 50.5479 13.3433 51.3497 13.037 51.8842C12.7128 52.4378 12.3344 52.9532 12.1903 53.0486C12.0642 53.125 11.9021 53.4877 11.83 53.8504L11.7219 54.5185L12.5146 53.6404C13.6856 52.3423 16.0455 48.658 16.55 47.3409C16.7841 46.7109 17.0364 45.8137 17.1084 45.3556C17.1985 44.5729 17.1805 44.4965 16.8202 44.4965C16.55 44.4965 16.4419 44.6111 16.4419 44.9547Z" stroke="#FF00D6" stroke-width="0.3" stroke-linejoin="round" style="mix-blend-mode:lighten"/>
<path d="M26.3681 46.1C24.981 47.589 24.7288 47.9899 25.053 48.1999C25.2332 48.3144 28.3318 45.2219 28.3318 44.9356C28.3318 44.3056 27.7012 44.6683 26.3681 46.1Z" stroke="#FF00D6" stroke-width="0.3" stroke-linejoin="round" style="mix-blend-mode:lighten"/>
<path d="M23.756 49.8798C22.7471 51.6169 22.549 52.0178 22.639 52.2469C22.8192 52.7623 23.2876 52.5141 23.6659 51.6933C23.8821 51.2542 24.2063 50.6624 24.4045 50.3761C24.6027 50.0707 24.6927 49.7652 24.6387 49.6507C24.4405 49.3262 24.0262 49.4407 23.756 49.8798Z" stroke="#FF00D6" stroke-width="0.3" stroke-linejoin="round" style="mix-blend-mode:lighten"/>
<path d="M47.6618 52.0751C47.5357 52.1323 47.4277 52.3232 47.4277 52.5141C47.4277 52.8768 47.7339 53.0868 48.1122 52.9532C48.2203 52.8959 48.3284 52.705 48.3284 52.5141C48.3284 52.1514 48.0221 51.9414 47.6618 52.0751Z" stroke="#FF00D6" stroke-width="0.3" stroke-linejoin="round" style="mix-blend-mode:lighten"/>
<path d="M20.9816 54.6712C20.3691 55.6639 19.7026 56.6184 19.5044 56.8092C19.0901 57.2101 19.018 57.8592 19.3963 57.8592C19.7206 57.8592 22.8012 53.335 22.657 53.0868C22.4048 52.6477 22.0265 52.9914 20.9816 54.6712Z" stroke="#FF00D6" stroke-width="0.3" stroke-linejoin="round" style="mix-blend-mode:lighten"/>
<path d="M50.6163 54.3467C50.5442 54.4231 50.4902 54.8048 50.4902 55.2057C50.4902 55.9311 50.1659 57.4774 49.7876 58.4891C49.6795 58.7946 49.6255 59.1191 49.6975 59.2145C49.9137 59.5963 50.274 59.3291 50.6523 58.47C51.3009 57.0192 51.2648 53.6595 50.6163 54.3467Z" stroke="#FF00D6" stroke-width="0.3" stroke-linejoin="round" style="mix-blend-mode:lighten"/>
<path d="M16.0275 68.6638C15.9555 68.7402 15.9014 68.9693 15.9014 69.1601C15.9014 69.4083 16.0275 69.5038 16.3698 69.5038C16.7481 69.5038 16.8202 69.4274 16.7661 69.0838C16.7121 68.6447 16.2797 68.4157 16.0275 68.6638Z" stroke="#FF00D6" stroke-width="0.3" stroke-linejoin="round" style="mix-blend-mode:lighten"/>
<path d="M10.8032 69.1792C10.6591 69.5801 10.9473 69.9237 11.3256 69.8474C11.812 69.7519 11.776 69.0456 11.2896 68.9693C11.0734 68.9311 10.8572 69.0265 10.8032 69.1792Z" stroke="#FF00D6" stroke-width="0.3" stroke-linejoin="round" style="mix-blend-mode:lighten"/>
<path d="M13.7216 69.2365C13.5234 69.5038 13.5415 69.5992 13.8837 69.8856C14.0999 70.0764 14.2801 70.3246 14.2801 70.4201C14.2801 70.7255 14.8385 70.8591 15.1088 70.63C15.451 70.3246 15.415 69.9046 15.0547 69.7519C14.8746 69.6756 14.6224 69.4656 14.4962 69.2747C14.208 68.8547 14.0279 68.8356 13.7216 69.2365Z" stroke="#FF00D6" stroke-width="0.3" stroke-linejoin="round" style="mix-blend-mode:lighten"/>
<path d="M12.1903 70.9164C12.0282 71.3745 12.2624 71.8327 12.6047 71.7563C13.037 71.68 13.037 70.7637 12.6047 70.6873C12.4425 70.6491 12.2444 70.7637 12.1903 70.9164Z" stroke="#FF00D6" stroke-width="0.3" stroke-linejoin="round" style="mix-blend-mode:lighten"/>
<path fill-rule="evenodd" clip-rule="evenodd" d="M14.6404 2.72872C14.6404 1.73606 14.6944 1.52608 15.0367 1.27792C15.6132 0.838859 16.0095 0.896126 17.847 1.62153C19.3423 2.2133 20.6033 3.03415 22.657 4.75221C22.9633 5.00037 24.0622 6.10756 25.1071 7.19566C26.1519 8.28376 27.0707 9.18096 27.1428 9.18096C27.1968 9.18096 27.2509 9.06643 27.2509 8.91371C27.2509 8.58919 27.7373 8.36012 28.0615 8.55101C28.1876 8.64646 28.5119 8.99007 28.7821 9.31459C29.0524 9.6582 29.4127 9.94454 29.5928 9.94454C29.773 9.94454 29.9711 10.0209 30.0432 10.1164C30.0972 10.2118 30.4035 10.25 30.7278 10.1927C31.2322 10.1164 31.3583 10.1736 31.5204 10.5745C31.7186 11.0136 31.8087 11.0517 32.8175 10.9754C33.412 10.9372 33.9524 10.9945 34.0065 11.0708C34.0605 11.1663 34.2407 11.2045 34.4388 11.1472C34.7991 11.0517 35.3576 11.529 35.3576 11.968C35.3576 12.1208 35.5378 12.2353 35.79 12.2353C36.0422 12.2353 36.3484 12.4071 36.4925 12.6362C36.7267 12.9607 36.8348 12.9989 37.1411 12.8271C37.5554 12.5789 38.24 12.8271 38.24 13.2088C38.24 13.3425 38.4202 13.3807 38.7084 13.3043C39.0507 13.2088 39.3029 13.3043 39.6992 13.667C40.0235 13.9343 40.4739 14.1442 40.7801 14.1442C41.1945 14.1442 41.3926 14.2779 41.6268 14.736C41.9894 15.419 42.138 15.7202 42.3308 15.7563C42.4828 15.7847 42.6623 15.6482 42.996 15.4041C43.3743 15.1369 43.8427 14.8696 44.0588 14.8124C44.275 14.736 44.9056 14.4878 45.464 14.2206C46.0225 13.9724 46.617 13.8197 46.7791 13.877C47.0854 13.9915 47.5357 13.7434 48.3104 13.018C48.5446 12.808 48.7968 12.6171 48.8869 12.6171C48.9589 12.6171 49.3553 12.3116 49.7696 11.9489C50.1839 11.5862 50.6704 11.2808 50.8505 11.2808C51.0126 11.2808 51.3729 11.109 51.6251 10.899C52.1116 10.4981 52.7421 10.4027 52.9222 10.7081C52.9763 10.8036 53.1925 10.899 53.3906 10.899C53.5888 10.899 54.1292 11.2045 54.5796 11.5672C55.03 11.9299 55.5524 12.2353 55.7506 12.2353C55.9307 12.2353 56.3631 12.3689 56.7054 12.5025C57.1738 12.7125 57.3359 12.9034 57.3359 13.247C57.3359 13.5334 57.5161 13.8388 57.7863 14.0297C58.5069 14.526 58.8311 15.1942 58.597 15.6523C58.4889 15.8814 58.2907 16.0532 58.1646 16.0532C57.7863 16.0532 57.6782 17.2176 58.0205 17.7712C58.2186 18.0958 58.2907 18.573 58.2547 19.2411C58.2186 20.3101 58.2006 21.2264 58.2547 23.899C58.2907 25.617 58.0745 26.3615 57.5521 26.3615C57.2819 26.3615 57.2458 26.5333 57.2999 27.6214C57.3539 28.4232 57.2819 29.0722 57.1377 29.3586C56.9576 29.7213 56.9576 29.8931 57.1197 30.1794C57.2458 30.3894 57.3359 30.7712 57.3359 31.0384C57.3359 31.3057 57.498 31.8593 57.6962 32.2792C57.8944 32.6992 58.0565 33.2337 58.0565 33.501C58.0565 33.7682 58.1286 34.0355 58.2367 34.0928C58.4528 34.2264 58.2727 35.9063 58.0025 36.2499C57.8944 36.4026 57.6241 36.4789 57.3899 36.4217C56.7774 36.3071 56.8495 36.8416 57.6602 38.1397C58.0745 38.7888 58.4528 39.7242 58.597 40.3923C58.7231 41.0222 59.1374 42.1294 59.5157 42.8739C61.029 45.8901 61.4433 49.498 60.4885 51.6169C60.1462 52.3805 59.912 52.705 59.6598 52.705C59.3896 52.705 59.3176 52.8386 59.3176 53.335C59.3176 53.6786 59.1914 54.1367 59.0473 54.3467C58.9032 54.5376 58.7771 55.0721 58.7771 55.5303C58.7771 55.9693 58.705 56.4847 58.597 56.6756C58.5069 56.8474 58.3447 57.3628 58.2367 57.8019C58.0745 58.4891 57.9664 58.6227 57.6061 58.6227C57.2278 58.6227 57.1558 58.7182 57.1558 59.2336C57.1558 59.9208 57.0837 60.0736 56.4892 60.589C56.1829 60.8753 56.0388 60.8944 55.7326 60.7226C55.4083 60.5508 55.3543 60.5699 55.3543 60.9135C55.3543 61.658 54.8498 62.6315 54.4715 62.6315C53.9851 62.6315 52.9042 63.8724 52.634 64.7314C52.3638 65.5904 52.1476 65.8768 51.7513 65.8768C51.5711 65.8768 51.2468 66.1822 51.0487 66.564C50.6884 67.1939 50.6163 67.2512 50.0398 67.1367C49.5354 67.0221 49.4093 67.0794 49.3192 67.3848C49.1751 67.8811 48.2023 68.7402 47.788 68.7402C47.6258 68.7402 47.3736 68.6066 47.2475 68.4538C46.9593 68.0911 46.635 68.3393 46.1666 69.2938C45.9504 69.771 45.6081 70.0955 45.0677 70.3437C44.6353 70.5537 44.0588 70.9736 43.8066 71.2982C43.3563 71.8518 43.3022 71.8709 42.6357 71.6418C41.9691 71.4318 41.9151 71.4509 41.4287 71.9854C41.1584 72.3099 40.8162 72.5581 40.69 72.5581C40.5639 72.5581 40.2937 72.8826 40.0956 73.2835C39.393 74.5816 38.9966 74.9061 38.24 74.7725C37.6815 74.677 37.5014 74.7343 37.1591 75.1352C36.6907 75.6697 36.0602 75.746 35.7179 75.3261C35.5378 75.0779 35.4117 75.097 34.7991 75.4788C34.4208 75.7078 34.0966 75.9751 34.0966 76.0705C34.0966 76.1469 33.8804 76.5096 33.6102 76.8532C33.3219 77.1777 32.9616 77.7313 32.7995 78.0558C32.5833 78.4758 32.3311 78.6858 31.8627 78.7813C31.5024 78.8385 31.1241 79.0676 31.016 79.2585C30.9259 79.4685 30.6557 79.6212 30.4395 79.6212C29.5388 79.6212 29.3046 79.8503 28.5119 81.492C27.9534 82.6755 27.377 83.5154 26.5303 84.3936C23.9541 87.1043 22.4769 87.9633 20.8015 87.7342C20.153 87.6388 19.9368 87.696 19.2522 88.2306C17.811 89.3187 16.2797 89.185 14.6584 87.8297C13.5955 86.9516 13.1451 86.188 12.6767 84.5654C11.9381 82.0265 12.0642 79.6212 13.0911 76.9487C13.3253 76.376 13.5595 75.6506 13.6315 75.3642L13.7576 74.8297L12.6227 74.9443C11.9922 75.0206 10.9473 75.2306 10.2807 75.4406C9.61418 75.6506 8.83954 75.8033 8.56931 75.7842C8.29909 75.7651 7.70459 75.8224 7.25422 75.8987C6.13729 76.0896 4.588 75.6315 3.52511 74.7915C3.03871 74.4288 2.39017 73.9898 2.0659 73.818C1.74163 73.6462 1.3453 73.2071 1.18316 72.8444C0.91294 72.2526 0.930955 72.0999 1.30927 70.4201C1.90376 67.8239 2.48024 66.6212 5.34463 62.0589C7.8307 58.1264 9.77632 54.4612 9.77632 53.7358C9.77632 53.5449 9.92044 52.8959 10.0826 52.2659C10.3528 51.2351 10.3528 51.1015 10.1006 50.9106C9.93845 50.7961 9.7583 50.2425 9.68624 49.6889C9.61418 49.1544 9.48808 48.6389 9.37999 48.5817C9.2719 48.5053 9.25388 48.1235 9.32594 47.6272C9.41602 46.9591 9.37999 46.7682 9.16381 46.6727C8.74946 46.5009 8.80351 45.4892 9.25388 44.6874C9.61418 44.0575 9.6322 43.9429 9.41602 42.454C9.30793 41.5949 9.25388 40.7359 9.30793 40.5259C9.37999 40.3159 9.48808 39.1706 9.57815 37.987C9.72227 35.9826 9.70426 35.7535 9.37999 35.1809C9.07373 34.6464 9.0377 34.4555 9.21785 34.0737C9.32594 33.8064 9.41602 33.4055 9.41602 33.1574C9.41602 32.9283 9.52411 32.5656 9.66823 32.3747C9.79433 32.1838 9.86639 31.8593 9.83036 31.6684C9.77632 31.4966 9.92044 31.0193 10.1186 30.6376C10.3348 30.2558 10.4969 29.7594 10.4789 29.5304C10.3528 28.2132 12.4245 24.7198 13.5775 24.2808C14.154 24.0708 14.2801 23.5172 13.8477 23.1354C13.4514 22.7727 13.3073 21.4937 13.6135 21.0164C13.7756 20.7492 13.8477 20.3292 13.7937 19.8138C13.7216 19.1266 13.7937 18.8975 14.262 18.2676C14.5683 17.8667 14.8205 17.4276 14.8205 17.294C14.8205 17.1604 15.0727 16.7022 15.379 16.2441L15.9374 15.4232L16.1176 7.34838L15.379 5.61123C14.7845 4.19861 14.6404 3.6641 14.6404 2.72872ZM49.1031 13.7052C49.1571 13.7434 49.4994 13.5715 49.8597 13.2852C50.238 13.018 50.4722 12.808 50.3821 12.808C50.1479 12.808 49.013 13.6097 49.1031 13.7052ZM45.9504 16.225C47.842 14.7551 48.8689 13.9152 48.8689 13.8388C48.8689 13.7243 48.8148 13.7434 48.3284 14.1251C48.0762 14.316 47.4637 14.7169 46.9593 14.9842C45.9865 15.5187 45.3019 16.1677 45.5 16.3586C45.5721 16.435 45.7703 16.3777 45.9504 16.225ZM42.2574 17.5231C42.3474 17.6185 44.0048 16.4541 44.0048 16.3013C44.0048 16.2632 43.9327 16.2441 43.8607 16.2441C43.6085 16.2441 42.1673 17.4085 42.2574 17.5231ZM31.3222 62.3834C31.4664 60.7226 31.7906 58.5846 32.0248 57.6301C32.4572 55.8548 32.5112 55.1485 32.1149 56.4084C32.0068 56.7711 31.7186 57.2292 31.4844 57.4201C31.07 57.7446 31.052 57.9164 30.8539 61.3525C30.7458 63.3188 30.6016 65.3422 30.4936 65.8386C30.0972 68.0911 30.1693 68.3202 30.7097 66.4876C30.8899 65.8959 31.1601 64.0442 31.3222 62.3834ZM28.602 61.7725C28.9623 60.6081 29.4307 59.31 29.6288 58.8518C30.1152 57.8019 29.9531 57.6301 29.4307 58.6227C29.2145 59.0427 28.8182 59.6345 28.5479 59.9399C27.9534 60.6081 26.7464 62.2879 26.26 63.1279C25.053 65.1895 23.9541 66.6594 21.8283 69.0456C19.5765 71.5654 19.3963 71.8327 19.018 73.0544C18.5676 74.5625 17.5228 79.8121 17.4147 81.2438C17.2886 82.561 17.2165 82.7137 16.7661 82.6373C16.4058 82.5801 16.3518 82.4464 16.2977 81.5301C16.2617 80.9575 16.3518 79.8312 16.5139 79.0485C16.6761 78.2658 17.0003 76.6241 17.2345 75.4215C17.4687 74.2189 17.6489 73.2071 17.6309 73.1689C17.5948 73.1499 17.0544 73.3789 16.4238 73.6844C15.9772 73.9007 15.5124 74.1075 15.2217 74.2369C15.1021 74.2901 15.0119 74.3302 14.9646 74.3525C14.7304 74.4288 14.6404 74.6579 14.6404 75.1543C14.6404 75.536 14.3882 76.6432 14.0819 77.5977C12.7848 81.5874 13.3973 85.4053 15.5952 86.9706C16.9463 87.9442 17.793 87.906 18.8919 86.837C19.8827 85.8634 20.0088 85.6344 20.4232 83.8972C20.6934 82.7328 20.7114 82.4464 20.5133 81.7974C20.3691 81.3965 20.207 80.652 20.153 80.1557C20.0449 79.3921 20.0809 79.2012 20.4052 78.8576C20.7294 78.514 20.8195 78.4949 21.36 78.724L21.9364 78.9912L22.7291 77.4832C23.6118 75.8033 24.0442 75.2879 24.8549 74.8106C25.1791 74.6388 25.5394 74.238 25.7016 73.9325C26.0258 73.2835 26.3501 71.3173 26.3501 70.0383C26.3501 69.1983 26.8185 67.4803 28.602 61.7725ZM7.92077 66.1249C8.11894 65.8386 8.08291 65.7431 7.66856 65.3613C7.05605 64.8459 6.96598 64.8268 6.73178 65.2468C6.60568 65.5141 6.69575 65.6668 7.12811 66.0104C7.66856 66.4304 7.72261 66.4494 7.92077 66.1249ZM3.66923 68.0339C4.13762 68.1675 4.87624 67.1176 4.60601 66.6785C4.29976 66.144 4.10159 66.2395 3.70526 67.0985C3.32695 67.9193 3.32695 67.9384 3.66923 68.0339ZM2.93062 69.981C3.03871 69.9237 3.11077 69.7901 3.11077 69.6756C3.11077 69.5801 3.03871 69.5038 2.93062 69.5038C2.67841 69.5038 2.35414 70.8782 2.57032 71.1073C2.69642 71.2409 2.75047 71.0882 2.75047 70.7064C2.75047 70.3628 2.84054 70.0383 2.93062 69.981ZM9.05572 72.1954C9.05572 71.8899 8.94763 71.7945 8.62336 71.7945C8.38916 71.7945 8.02886 71.7372 7.84871 71.6609C7.54246 71.5272 7.54246 71.5463 7.81268 71.9854C8.191 72.6153 9.05572 72.749 9.05572 72.1954ZM21.7563 81.5301C22.1706 81.5301 22.2067 80.9956 21.8283 80.4993C21.3239 79.8121 21.0717 79.8694 21.2158 80.6138C21.378 81.4156 21.45 81.5301 21.7563 81.5301ZM19.1982 3.58774C19.0721 3.4923 18.3515 3.16777 17.5768 2.86235C16.8022 2.55691 16.1176 2.30875 16.0455 2.30875C15.9555 2.30875 15.9014 2.63327 15.9014 3.05324C15.9014 4.37042 17.6849 7.8447 18.3695 7.8447C18.4956 7.8447 18.6037 7.92106 18.6037 8.01651C18.6037 8.11196 18.8739 8.5701 19.1982 9.02825C19.5224 9.4864 20.1169 10.4791 20.4952 11.2426C21.1438 12.5025 21.1798 12.6553 20.9456 13.0561C20.8195 13.2852 20.5493 13.8006 20.3691 14.1824C20.0088 14.9842 19.8467 15.0605 19.5044 14.6215C19.3062 14.3542 19.2522 14.3733 19.054 14.6597C18.9099 14.8505 18.7118 14.9269 18.5136 14.8315C18.2253 14.7169 18.2073 14.5451 18.3154 13.2088C18.4055 12.1971 18.3695 11.4144 18.2253 10.8608L17.9912 10.04L17.847 11.8535C17.775 12.8461 17.6309 14.1061 17.5228 14.6406C17.3426 15.5569 17.3606 15.6714 17.8831 16.7404C18.3154 17.5803 18.4235 18.0194 18.3515 18.4775C18.3154 18.8212 18.3154 19.1075 18.3875 19.1075C18.4595 19.1075 18.9279 18.4394 19.4143 17.6376C20.4772 15.9005 20.8015 15.6332 21.2519 16.1105C21.5581 16.4159 21.5581 16.4732 21.2519 17.0649C21.0717 17.3894 20.4052 18.4394 19.7566 19.3557C18.5496 21.0737 18.4415 21.5319 19.1441 21.7228C19.3423 21.78 19.5044 21.9327 19.5044 22.0664C19.5044 22.41 18.8919 22.9254 18.4776 22.9254C18.0812 22.9254 17.6309 22.4863 17.811 22.2954C17.8831 22.2382 17.6849 21.8564 17.3967 21.4555C17.1084 21.0546 16.7661 20.4629 16.64 20.1192C16.4238 19.5657 16.4419 19.4511 16.7841 18.9357L17.1625 18.3821L16.7661 17.504C16.5319 17.0267 16.2977 16.645 16.2257 16.6259C16.0275 16.6259 15.0907 18.7639 15.1448 19.0693C15.1808 19.222 15.1088 19.432 15.0007 19.5657C14.9106 19.7184 14.8565 19.9665 14.9286 20.1383C14.9826 20.3101 14.8926 20.6728 14.7304 20.9592C14.5143 21.3028 14.4782 21.4937 14.6043 21.551C14.7304 21.5891 14.8205 21.78 14.8205 21.9518C14.8205 22.1427 14.9826 22.4482 15.1808 22.6391C15.8654 23.2881 15.4691 24.7007 14.4962 25.1398C13.1091 25.7506 12.0282 27.316 11.758 29.0722C11.6499 29.7403 11.5418 30.5612 11.5238 30.8857C11.4877 31.2293 11.3797 31.6111 11.2535 31.7447C11.1274 31.8784 11.0374 32.2029 11.0374 32.4701C11.0374 32.7374 10.9473 33.0619 10.8392 33.1765C10.6951 33.3292 10.6951 33.501 10.8572 33.7873C10.9653 34.0164 11.0013 34.2836 10.9473 34.3982C10.8752 34.4936 10.9113 34.7036 11.0194 34.8372C11.1635 35.0281 11.1635 35.2381 11.0194 35.639C10.6591 36.6126 10.587 37.8916 10.7311 41.9958C10.7852 43.7711 10.8572 44.1911 11.0914 44.3438C11.2535 44.4393 11.3977 44.6874 11.3977 44.8783C11.3977 45.2028 11.2716 45.2601 10.6771 45.2601C9.90242 45.2601 9.77632 45.4319 10.2447 45.8519C10.4609 46.0428 10.5149 46.3291 10.4429 46.9782C10.3528 47.8945 10.5329 48.5053 10.9113 48.5053C11.2175 48.5053 11.8841 49.4598 12.0462 50.1088C12.1183 50.4524 12.0282 50.8533 11.6859 51.4451C11.3797 51.9796 11.2175 52.5714 11.2175 53.0677C11.2175 54.2513 9.41602 57.8783 6.7498 62.1161C5.50676 64.0823 4.53395 65.724 4.56998 65.7622C4.60601 65.8004 4.82219 65.8958 5.05639 65.9531C5.39867 66.0676 5.45272 66.0295 5.45272 65.6095C5.45272 65.3232 5.56081 65.1132 5.70493 65.1132C6.10126 65.1132 6.3895 64.655 6.13729 64.3878C5.81302 64.0442 6.10126 63.5669 6.58766 63.6815C6.92995 63.7769 7.18216 63.5478 8.28107 62.1161C9.398 60.6271 10.0465 59.6536 11.1094 57.7828L11.4337 57.2483L11.812 57.6492C12.1003 57.9355 12.1543 58.1264 12.0282 58.3173C11.1094 59.7108 10.4609 60.7608 10.1186 61.4862C9.68624 62.3834 9.12778 62.9942 8.73145 63.0133C8.5513 63.0133 8.5513 63.0897 8.73145 63.3951C9.0377 63.9105 8.71343 64.2732 8.191 63.9869C7.92077 63.8342 7.77665 63.8533 7.63253 64.0251C7.48841 64.216 7.57849 64.3496 7.97482 64.5978L8.47924 64.9223L9.16381 63.7387C10.8212 60.8371 12.5146 58.2219 12.6947 58.2791C13.0911 58.4319 13.019 58.7373 12.3164 59.7108C11.5778 60.7608 9.68624 64.1969 8.71343 66.2013C8.40718 66.8694 8.10092 67.4039 8.04688 67.4039C7.86673 67.4039 6.80384 66.774 6.47957 66.4876C5.95714 65.9913 5.88508 66.4304 6.40751 66.9458C6.67774 67.213 6.85789 67.4994 6.80384 67.6139C6.65972 67.8621 6.10126 67.8239 5.86706 67.5757C5.59684 67.2894 5.16448 67.4612 4.91227 67.9766C4.75013 68.282 4.76815 68.3966 5.00234 68.492C5.16448 68.5493 5.95714 69.0265 6.76781 69.5229C7.88474 70.2292 8.42519 70.4582 8.98366 70.4582C10.1366 70.4582 10.3888 70.7828 10.2627 72.0045C10.2087 72.5772 10.1006 73.188 10.0285 73.398C9.92044 73.7034 9.9925 73.7416 10.7852 73.6653C11.9561 73.5507 15.2709 72.6153 16.1716 72.119C17.1985 71.5845 22.8702 65.8386 22.3478 65.8386C23.9871 65.1514 28.4038 58.0692 29.4127 55.8357C30.2594 53.9458 30.7458 53.2777 31.2862 53.2777C31.7546 53.2586 32.6013 52.1132 32.8355 51.1588C32.9616 50.6815 33.1598 50.3952 33.412 50.2997C34.5469 49.9179 34.601 52.5714 33.5561 56.5611C33.0337 58.5273 32.7454 60.1881 32.4932 62.5361C32.223 65.2277 32.0068 66.2585 31.3403 68.5493C30.8719 70.0764 30.2594 72.1763 29.9531 73.2453C29.6469 74.3334 29.2505 75.3261 29.0524 75.517C28.8542 75.7078 28.6921 75.9751 28.6921 76.1087C28.6921 76.2614 28.0255 77.7695 27.2148 79.4685C25.9538 82.1219 25.5755 82.7519 24.6387 83.7254C22.4409 85.9971 22.1706 86.188 21.7203 85.7107C21.5942 85.5771 21.45 85.6153 21.2339 85.8444C20.8015 86.2834 21.1258 86.5698 21.8824 86.4171C22.6751 86.2643 25.5394 83.9545 26.3501 82.8091C26.6924 82.3319 27.413 80.9956 27.9534 79.8694C28.4939 78.7431 29.0163 77.7504 29.1244 77.6741C29.2145 77.5977 29.5388 77.5977 29.827 77.655C30.2053 77.7313 30.4035 77.6741 30.6016 77.3686C30.7458 77.1586 31.1601 76.9296 31.5564 76.8532C32.241 76.7387 32.5653 76.3569 32.6914 75.517C32.7274 75.2688 33.1418 74.9061 33.8263 74.5052C34.7091 73.9898 35.0514 73.8943 35.6819 73.9898C36.2403 74.0471 36.6006 73.9707 37.015 73.7034C37.3573 73.4744 37.7536 73.3789 38.0599 73.4362C38.4742 73.5316 38.6183 73.4171 39.2128 72.4626C39.5911 71.8518 40.0415 71.3173 40.2217 71.2791C40.4739 71.2027 40.5459 71.05 40.4739 70.6682C40.4378 70.401 40.4559 70.0764 40.5279 69.981C40.7621 69.6565 41.8971 68.8165 42.6537 68.3966C43.05 68.1866 43.8247 67.5185 44.3651 66.9267C44.9056 66.3158 45.7703 65.5331 46.2927 65.1895C46.8151 64.8268 47.4997 64.1969 47.806 63.7769C48.1302 63.3569 48.4725 63.0133 48.5806 63.0133C48.6887 63.0133 49.1391 62.6697 49.5714 62.2498C50.202 61.6198 50.3281 61.3907 50.256 60.9898C50.202 60.7035 50.292 60.0926 50.4362 59.6345C50.6523 58.9473 50.7784 58.7946 51.1027 58.8518C51.3729 58.89 51.463 59.0236 51.409 59.2909C51.406 59.3252 51.4021 59.3697 51.3975 59.4225C51.3738 59.6927 51.331 60.18 51.3009 60.6271C51.2648 61.5625 50.5623 63.2042 50.0578 63.5287C49.9498 63.6242 49.7156 63.9105 49.5354 64.216C49.3553 64.5023 49.067 64.7314 48.8869 64.7314C48.7067 64.7314 48.4185 64.9223 48.2203 65.1323C48.0402 65.3613 47.5177 65.8004 47.0674 66.1249C46.617 66.4304 45.6442 67.3085 44.9056 68.053C44.1669 68.7974 43.2842 69.561 42.9599 69.7328C42.3294 70.0955 42.2033 70.4582 42.7077 70.4582C42.9059 70.4582 43.1401 70.2483 43.2482 69.981C43.3563 69.7328 43.6445 69.4656 43.8787 69.4083C44.1309 69.332 44.4912 69.0265 44.7074 68.7211C44.9236 68.4157 45.1938 68.1675 45.3199 68.1675C45.446 68.1675 45.7342 67.9193 45.9504 67.5948C46.4548 66.8885 47.1394 66.6785 47.5898 67.0985C47.896 67.3848 47.9321 67.3848 48.1663 67.0985C48.3104 66.9267 48.6166 66.3731 48.8689 65.8959C49.2652 65.1323 49.3913 65.0177 49.9317 64.9986C50.4542 64.9986 50.5983 64.8841 50.8325 64.3878C50.9766 64.0442 51.2648 63.7196 51.481 63.6624C52.0215 63.5097 52.8141 62.3834 53.1564 61.238C53.4086 60.4172 53.5347 60.2263 53.9131 60.1881C54.2553 60.1499 54.4715 59.9208 54.7237 59.3291C54.9579 58.7946 55.2101 58.5082 55.4804 58.47C55.7686 58.4319 55.8947 58.241 55.9848 57.6492C56.0568 57.2483 56.1829 56.8665 56.273 56.8092C56.4171 56.7138 54.8859 53.3731 54.4175 52.7432C54.2013 52.495 54.5616 51.8651 54.8138 52.0369C55.102 52.2278 56.9936 56.1602 56.8855 56.332C56.8315 56.4465 56.8855 56.5229 57.0296 56.5229C57.1738 56.5229 57.3359 56.332 57.408 56.0838C57.6782 55.0339 57.5161 54.4994 56.3451 52.6477C55.6965 51.6169 55.2101 50.7006 55.2642 50.6052C55.4443 50.3188 55.8407 50.3761 55.9668 50.7197C56.219 51.426 57.7683 53.6595 57.9484 53.6022C58.1826 53.5259 58.3267 51.5596 58.0925 51.5596C58.0025 51.5596 57.444 50.8915 56.8675 50.0897C56.273 49.2689 55.5344 48.2953 55.2101 47.8945C54.6337 47.2072 54.5796 46.7873 55.066 46.7873C55.2101 46.7873 55.8046 47.4554 56.3991 48.2572C58.669 51.3115 59.0113 51.5978 59.5698 50.7579C59.9481 50.1852 59.9481 48.0472 59.5698 46.4246C59.4076 45.7373 58.9212 44.4202 58.4889 43.523C58.0565 42.6067 57.6061 41.3659 57.462 40.755C57.3179 40.0869 56.9035 39.1133 56.4532 38.3879C55.7866 37.2998 55.6965 37.0516 55.8046 36.3835C55.9127 35.5817 56.3271 34.9518 56.7414 34.9518C56.8675 34.9518 56.9756 34.8182 56.9756 34.6464C56.9756 34.3218 56.4352 32.1074 55.9307 30.4085C55.6785 29.5495 55.6785 29.3204 55.8767 28.7859C56.0208 28.4614 56.1289 27.5832 56.1469 26.8769C56.1649 25.7888 56.237 25.5216 56.5252 25.3116C57.2819 24.7389 57.3359 24.6625 57.1558 24.1471C57.0477 23.8608 57.0477 22.7727 57.1377 21.2455C57.2638 19.2984 57.2458 18.7257 57.0477 18.3057C56.7054 17.5994 56.7234 15.6905 57.0657 15.2896C57.3179 14.9842 57.2999 14.9269 56.9035 14.6406C56.6513 14.4688 56.3271 14.087 56.1829 13.7815C55.9848 13.3997 55.7146 13.1898 55.2822 13.1134C54.9399 13.037 54.5796 12.8652 54.4535 12.7125C54.3454 12.5789 54.1472 12.4834 54.0211 12.5407C53.877 12.598 53.6428 12.5025 53.4807 12.3116C52.9943 11.7962 51.9314 11.8153 51.3369 12.3498L50.8145 12.808H51.499C52.9583 12.808 54.7057 14.2397 55.6425 16.2059C56.1109 17.1604 56.1649 17.504 56.1649 19.0121C56.1649 21.1501 55.6965 22.8109 54.5256 24.8916C53.805 26.1515 53.6789 26.5715 53.5708 27.755C53.4807 28.9004 53.4086 29.1295 53.1204 29.1868C52.9222 29.244 52.67 29.1295 52.5439 28.9577C52.3638 28.6713 52.3277 28.6904 52.2377 29.0531C52.0935 29.5876 51.5351 29.454 51.3729 28.8431C51.3138 28.6282 51.2824 28.5141 51.2527 28.5146C51.2191 28.5152 51.1877 28.6626 51.1207 28.9768C51.0307 29.3967 50.8865 29.6067 50.6704 29.6067C50.4181 29.6067 50.3281 29.8549 50.202 30.8857C50.0578 32.012 49.9858 32.1838 49.4994 32.4892C48.2563 33.2528 47.9321 32.7374 48.0041 30.1985C48.0582 28.595 48.0762 28.5568 48.4905 28.5568C48.8508 28.5568 48.9769 28.6904 49.1031 29.2249L49.2832 29.8931L49.4093 29.3013C49.5714 28.5377 49.7336 28.2705 50.0398 28.2705C50.1659 28.2705 50.3281 28.0987 50.4001 27.9078C50.4542 27.6978 50.6884 27.4687 50.9045 27.3923C51.1207 27.316 51.409 27.0869 51.5531 26.896C51.7152 26.6288 51.9134 26.5524 52.2016 26.6288C52.5439 26.7242 52.634 26.6478 52.7241 26.1324C52.7961 25.7888 53.0303 25.2161 53.2825 24.8343C54.1472 23.4981 54.8498 21.2264 54.9579 19.4702C55.03 17.9621 54.994 17.7521 54.5616 16.7977C54.2914 16.225 53.9311 15.595 53.7689 15.4041C53.2465 14.7933 51.8774 13.9533 51.391 13.9533C50.9045 13.9533 48.0582 15.7287 47.2475 16.5304C46.9953 16.7786 46.4008 17.1604 45.8964 17.3894C45.41 17.6185 44.8335 17.9621 44.6353 18.153C44.0048 18.783 43.2482 19.1075 42.978 18.8784C42.6717 18.6303 41.843 19.3557 40.654 20.9592C40.1676 21.6273 39.6272 22.1618 39.447 22.1618C38.8525 22.1618 38.9066 21.6082 39.5731 20.6919C39.9334 20.2147 40.2217 19.6993 40.2217 19.5466C40.2217 19.4129 40.5459 18.6875 40.9423 17.943L41.6629 16.5877L41.1945 15.9577C40.9242 15.5759 40.636 15.3469 40.4739 15.4232C40.3478 15.4805 39.9334 15.3469 39.5911 15.1178C39.2308 14.8887 38.7084 14.7169 38.4202 14.7169C38.1319 14.7169 37.8437 14.6215 37.7896 14.5069C37.7176 14.4115 37.4473 14.3733 37.1591 14.4306C36.7988 14.5069 36.5286 14.4306 36.1503 14.087C35.862 13.8388 35.4117 13.5715 35.1414 13.4952C34.8532 13.4379 34.637 13.3043 34.637 13.2088C34.637 13.1325 33.8984 12.9416 32.9976 12.7889C31.6465 12.5789 31.3042 12.4644 31.0881 12.1017C30.9439 11.8726 30.7278 11.7199 30.6016 11.7771C30.4755 11.8344 30.1333 11.6626 29.845 11.4144C29.5568 11.1663 29.0343 10.8227 28.7101 10.6318C28.1516 10.3454 28.0615 10.3454 27.9354 10.6127C27.7012 11.0517 27.1788 10.9563 26.6924 10.4027C25.7196 9.27641 22.1346 5.89757 20.8195 4.86674C20.5154 4.62691 20.2196 4.39295 19.9648 4.19146C19.5707 3.87975 19.2748 3.64572 19.1982 3.58774ZM24.7288 14.946C24.7288 15.0796 24.4405 15.7859 24.0982 16.5113C23.3957 18.0003 23.3236 18.4012 23.792 18.3057C24.1163 18.2485 25.4314 15.6523 25.4494 15.0414C25.4494 14.8505 25.3233 14.7169 25.0891 14.7169C24.8909 14.7169 24.7288 14.8315 24.7288 14.946ZM30.998 16.3777C29.6829 17.8667 27.8454 20.8447 28.0615 21.2074C28.3137 21.6273 28.62 21.341 29.1785 20.1956C29.5027 19.5466 30.2954 18.3439 30.9619 17.5231C31.9888 16.225 32.241 15.6714 31.7726 15.6714C31.7006 15.6714 31.3583 15.9959 30.998 16.3777ZM31.3042 18.6684C30.7638 19.3748 30.3134 20.062 30.3134 20.1765C30.3134 20.6538 30.7458 20.6919 31.016 20.2338C31.1781 19.9856 31.6465 19.3175 32.0789 18.7639C32.7815 17.8476 32.9076 17.3895 32.4752 17.3895C32.3851 17.3895 31.8627 17.9621 31.3042 18.6684ZM22.2967 18.9548C22.0986 19.6038 21.36 23.8035 21.432 23.9181C21.468 24.0135 21.6122 24.0708 21.7563 24.0708C21.9184 24.0708 22.0445 23.7463 22.1166 23.1545C22.1886 22.6581 22.3868 21.551 22.585 20.6728C22.7651 19.7947 22.9273 18.993 22.9273 18.8975C22.9273 18.6303 22.3868 18.6875 22.2967 18.9548ZM48.1122 21.0546C46.3828 23.1163 45.428 24.3571 44.8515 25.3498C44.4732 25.9797 44.203 26.2088 43.6265 26.3615C43.032 26.5333 42.8338 26.5333 42.5996 26.3042C42.4195 26.1515 42.1673 25.9988 42.0232 25.9415C41.879 25.8843 41.3026 25.4452 40.7441 24.968C39.7893 24.1471 39.5191 23.9944 38.9966 24.0517C38.5463 24.0899 38.8705 24.9107 39.5011 25.3498C41.2305 26.5333 41.879 27.2205 42.5636 28.6522L43.2482 30.1031L42.7798 30.084C42.0232 30.084 42.0772 30.6566 42.9059 31.6111C43.3923 32.1647 43.6445 32.642 43.6445 32.9665C43.6445 33.5773 44.293 35.009 44.7614 35.4672C45.0497 35.7344 45.1398 35.7535 45.3559 35.5054C45.5721 35.2763 45.5541 35.1236 45.2298 34.3791C45.0317 33.9019 44.8335 32.9856 44.7975 32.3556C44.7254 31.2102 44.7434 31.1721 45.2659 30.9048C45.8603 30.5994 46.4008 29.664 46.8151 28.2132C46.9953 27.5832 47.2115 27.2396 47.4997 27.1251C47.878 26.9724 48.5086 25.7697 48.5086 25.178C48.5086 25.0634 48.8869 24.1471 49.3553 23.1736C49.9858 21.8182 50.202 21.1501 50.202 20.4819C50.22 19.7184 50.1659 19.5847 49.8417 19.5275C49.5534 19.4893 49.1211 19.8711 48.1122 21.0546ZM25.4313 24.5098C24.6927 25.7506 24.3865 26.4379 23.7379 28.3468C22.9993 30.4848 22.1706 33.9591 22.3148 34.2073C22.5129 34.5509 22.8732 34.0164 22.9993 33.1765C23.3236 31.0384 25.1251 26.037 26.0799 24.7198C26.5303 24.0899 26.5483 23.689 26.1159 23.689C25.9898 23.689 25.6836 24.0517 25.4313 24.5098ZM54.5616 26.896C54.5075 26.9915 54.4175 27.6596 54.3454 28.385C54.2914 29.1104 54.0752 29.9885 53.895 30.3321C53.4807 31.1148 53.4627 31.4966 53.859 32.7947C54.1473 33.7301 54.1473 33.8255 53.859 34.0546C53.5888 34.2646 53.5888 34.3791 53.859 35.6199C54.0031 36.3453 54.2914 37.2807 54.4895 37.6816C54.7417 38.2161 54.7778 38.4833 54.6337 38.7697C54.4715 39.0751 54.5796 39.3996 55.2462 40.5259C55.6785 41.2895 56.1469 41.9194 56.273 41.9194C56.6513 41.9194 56.6693 41.3277 56.309 40.755C56.1289 40.4496 55.9848 39.9914 55.9668 39.7242C55.9487 39.4569 55.6605 38.5215 55.3002 37.6243C54.7057 36.1353 54.6517 35.8872 54.7417 34.7609C54.8318 33.9019 54.7778 33.2146 54.5616 32.5083C54.2914 31.5157 54.2914 31.4393 54.6517 30.7139C55.084 29.8167 55.2462 26.9342 54.8678 26.8006C54.7598 26.7624 54.6156 26.8006 54.5616 26.896ZM15.7753 30.9621C14.8565 31.153 14.1179 31.5348 13.6315 32.1265C13.019 32.8138 12.8389 33.291 13.037 33.6728C13.3253 34.2073 13.8837 34.0546 14.3161 33.3292C14.8385 32.4892 15.361 32.2029 16.4058 32.2029C17.2345 32.1838 17.2525 32.2029 17.4867 32.9474C17.793 33.8828 17.6309 40.1441 17.2706 41.6331C17.0724 42.4158 17.0724 42.6258 17.2706 42.7976C17.4147 42.9121 17.6309 42.9694 17.757 42.9121C18.4595 42.6258 19.0901 35.1045 18.5856 32.6992C18.2794 31.1721 17.4147 30.6376 15.7753 30.9621ZM28.7101 34.5891C28.0976 35.1236 27.6112 35.6199 27.6112 35.7154C27.6112 35.7917 27.3229 36.2499 26.9626 36.6889C26.6023 37.1471 26.242 37.7007 26.17 37.9107C26.0979 38.1397 26.206 39.1324 26.4402 40.335C26.9626 42.9503 26.9806 43.0075 27.467 42.9312C28.0435 42.8548 28.0796 42.1103 27.6112 40.1632C27.395 39.266 27.2689 38.3497 27.3229 38.1016C27.377 37.8725 27.7193 37.4525 28.0615 37.1662C28.4038 36.8798 28.6921 36.5362 28.6921 36.4026C28.6921 36.1353 29.5027 35.2763 30.0792 34.9709C30.6377 34.6654 30.962 34.8563 32.2951 36.1735C32.9436 36.8226 33.7363 37.4716 34.0425 37.6434C34.3488 37.8152 34.9253 38.4833 35.3396 39.1324C35.844 39.9151 36.3304 40.4305 36.8529 40.6977C37.2672 40.9268 37.8437 41.3086 38.1139 41.5567C38.4021 41.8049 38.7805 42.0149 38.9606 42.0149C39.3029 42.0149 39.8614 41.5377 39.8614 41.2513C39.8614 41.0986 37.6996 39.6669 37.1411 39.4378C36.997 39.3805 36.6187 38.9224 36.3304 38.4452C35.7179 37.4143 35.1234 36.7653 34.4028 36.3644C34.1146 36.1926 33.5021 35.639 33.0517 35.1045C32.0248 33.9591 31.4664 33.6155 30.5116 33.6155C29.9171 33.6155 29.6288 33.7873 28.7101 34.5891ZM12.0642 33.94C12.0102 34.0355 11.794 34.8182 11.5778 35.7154C11.2716 36.9562 11.1815 37.9107 11.1635 39.7242C11.1635 41.9004 11.2175 42.2631 11.7219 43.9429C12.1183 45.1837 12.2984 46.1764 12.3164 46.9972L12.3344 48.219L12.7668 47.2263C13.0731 46.5009 13.1451 46.1 13.037 45.7946C12.9109 45.451 12.983 45.2028 13.3433 44.6874C13.8117 44.0193 14.7845 42.9694 14.9466 42.9694C15.0727 42.9694 14.8205 44.3247 14.5143 45.2601C14.3521 45.7373 13.8837 46.9782 13.4694 48.0281C12.8209 49.6316 12.2444 51.6933 12.5326 51.3687C12.7848 51.0824 15.0367 47.8372 15.1628 47.5699C15.3249 47.2645 15.7573 45.2219 16.0816 43.2557C16.4419 41.0604 16.4779 40.1823 16.2077 38.9606C16.0636 38.2734 15.9735 37.4525 16.0275 37.1471C16.0996 36.6317 15.9915 36.4408 15.2889 35.7535C14.8385 35.3145 14.3882 34.9518 14.2981 34.9518C14.0098 34.9518 13.7756 35.4099 13.6495 36.269C13.5775 36.7271 13.3253 37.548 13.0911 38.0825C12.4786 39.4951 12.4786 41.4804 13.1271 42.8167C13.4874 43.5611 13.5415 43.8284 13.3613 43.9429C13.019 44.172 12.9289 44.0384 12.5506 42.8357C12.0822 41.3468 12.0822 36.269 12.5326 34.9709C12.6947 34.5127 12.7848 34.0737 12.7308 33.9782C12.6227 33.7682 12.1723 33.7491 12.0642 33.94ZM48.0221 37.7579C47.6799 37.8916 47.7339 38.407 48.1302 38.846C48.3284 39.0751 48.995 40.335 49.6435 41.6713C50.6343 43.7139 50.7604 44.1338 50.5623 44.3438C50.3461 44.5729 50.3461 44.7447 50.5803 45.5465C50.7244 46.0619 50.7965 46.52 50.7604 46.5582C50.7244 46.6155 50.4722 46.5009 50.22 46.3291C49.6795 45.9473 49.2291 46.0428 49.2291 46.52C49.2291 46.6918 49.4453 47.4554 49.6975 48.1999C50.0398 49.2116 50.1839 49.9561 50.202 51.1206C50.22 52.7623 50.3101 53.0104 50.7604 52.8386C50.9226 52.7623 51.0307 52.4759 51.0307 52.0369C51.0307 51.6742 51.1207 51.216 51.2288 51.0251C51.3729 50.777 51.2829 50.2997 50.8865 49.0207L50.3641 47.3218L50.7784 47.4172C51.5531 47.5699 51.6612 47.3218 51.409 45.9282C51.1928 44.7638 51.1928 44.6492 51.499 44.4202C51.8053 44.172 51.7873 44.1147 51.3189 43.2366C51.0667 42.7212 50.5443 41.6522 50.202 40.8695C49.4633 39.2278 48.6887 37.8534 48.4185 37.7579C48.3284 37.7198 48.1302 37.7198 48.0221 37.7579ZM28.9263 38.1206C28.8722 38.2924 28.9803 38.7888 29.1785 39.2278C29.4127 39.7242 29.5207 40.2396 29.4667 40.545C29.3766 40.9841 29.4487 41.0986 29.9531 41.2704L30.5116 41.4804L30.0612 41.9958C29.3226 42.7976 28.638 44.592 28.7641 45.3556C28.8542 45.871 28.7821 46.1573 28.3318 46.8636C27.7553 47.7799 26.9806 48.5053 26.6203 48.5053C26.26 48.5053 24.963 49.8034 24.7288 50.3952C24.2063 51.7314 25.3052 52.056 26.0979 50.7961C26.4222 50.2997 26.7104 50.0325 26.9806 50.0325C27.1968 50.0325 27.8093 49.7843 28.3498 49.4789C29.1604 49.0207 29.6108 48.9062 31.1781 48.8108C33.1598 48.6771 34.1866 48.3717 35.1775 47.6463C35.5197 47.3981 36.2584 47.0927 36.7988 46.9782C37.3393 46.8636 38.0238 46.6345 38.2941 46.4627C38.5823 46.31 39.0507 46.1573 39.3569 46.1382C39.8253 46.1 40.2036 45.7755 40.2217 45.4128C40.2217 45.0883 39.5911 44.6874 39.0687 44.6874C38.6724 44.6874 38.3661 44.5347 38.1139 44.2293C37.8257 43.8857 37.4654 43.7329 36.7267 43.6375C35.7359 43.5039 35.2675 43.2175 34.1866 42.1485C33.8804 41.8431 32.8715 40.9077 31.9348 40.0678C30.998 39.2087 30.1152 38.3497 29.9891 38.1588C29.7009 37.7388 29.0884 37.7007 28.9263 38.1206ZM54.7237 41.4422C54.4535 41.9004 57.5701 46.5964 58.1646 46.5964C58.5429 46.5964 58.4708 45.9473 58.0385 45.5274C57.5161 45.031 56.201 43.0648 55.7326 42.0531C55.3723 41.2895 54.9579 41.0413 54.7237 41.4422ZM26.206 44.6302C25.3413 45.6037 25.1071 46.2146 25.6295 46.2146C25.9358 46.2146 27.9715 44.0956 27.9715 43.7902C27.9715 43.1984 27.1248 43.5993 26.206 44.6302ZM54.8318 43.7902C54.6877 44.0002 54.8138 44.3247 55.4083 45.2028C56.8135 47.3409 57.6061 48.2953 57.9304 48.3144C58.3808 48.3144 58.3087 47.8754 57.7683 47.3409C57.5161 47.0927 56.8495 46.1764 56.309 45.3174C55.1921 43.523 55.1201 43.4466 54.8318 43.7902ZM48.2744 44.2293C48.1122 44.4011 48.1122 47.0163 48.2563 47.9708C48.3284 48.4099 48.4725 48.6962 48.6166 48.6962C48.8328 48.6962 48.8508 48.3144 48.7608 46.5391C48.6527 44.4774 48.5446 43.962 48.2744 44.2293ZM16.4419 44.9547C16.4419 45.9664 15.2168 48.7917 14.19 50.1279C13.8657 50.5479 13.3433 51.3497 13.037 51.8842C12.7128 52.4378 12.3344 52.9532 12.1903 53.0486C12.0642 53.125 11.9021 53.4877 11.83 53.8504L11.7219 54.5185L12.5146 53.6404C13.6856 52.3423 16.0455 48.658 16.55 47.3409C16.7841 46.7109 17.0364 45.8137 17.1084 45.3556C17.1985 44.5729 17.1805 44.4965 16.8202 44.4965C16.55 44.4965 16.4419 44.6111 16.4419 44.9547ZM26.3681 46.1C24.981 47.589 24.7288 47.9899 25.053 48.1999C25.2332 48.3144 28.3318 45.2219 28.3318 44.9356C28.3318 44.3056 27.7012 44.6683 26.3681 46.1ZM23.756 49.8798C22.7471 51.6169 22.549 52.0178 22.639 52.2469C22.8192 52.7623 23.2876 52.5141 23.6659 51.6933C23.8821 51.2542 24.2063 50.6624 24.4045 50.3761C24.6027 50.0707 24.6927 49.7652 24.6387 49.6507C24.4405 49.3262 24.0262 49.4407 23.756 49.8798ZM47.6618 52.0751C47.5357 52.1323 47.4277 52.3232 47.4277 52.5141C47.4277 52.8768 47.7339 53.0868 48.1122 52.9532C48.2203 52.8959 48.3284 52.705 48.3284 52.5141C48.3284 52.1514 48.0221 51.9414 47.6618 52.0751ZM20.9816 54.6712C20.3691 55.6639 19.7026 56.6184 19.5044 56.8092C19.0901 57.2101 19.018 57.8592 19.3963 57.8592C19.7206 57.8592 22.8012 53.335 22.657 53.0868C22.4048 52.6477 22.0265 52.9914 20.9816 54.6712ZM50.6163 54.3467C50.5442 54.4231 50.4902 54.8048 50.4902 55.2057C50.4902 55.9311 50.1659 57.4774 49.7876 58.4891C49.6795 58.7946 49.6255 59.1191 49.6975 59.2145C49.9137 59.5963 50.274 59.3291 50.6523 58.47C51.3009 57.0192 51.2648 53.6595 50.6163 54.3467ZM16.0275 68.6638C15.9555 68.7402 15.9014 68.9693 15.9014 69.1601C15.9014 69.4083 16.0275 69.5038 16.3698 69.5038C16.7481 69.5038 16.8202 69.4274 16.7661 69.0838C16.7121 68.6447 16.2797 68.4157 16.0275 68.6638ZM10.8032 69.1792C10.6591 69.5801 10.9473 69.9237 11.3256 69.8474C11.812 69.7519 11.776 69.0456 11.2896 68.9693C11.0734 68.9311 10.8572 69.0265 10.8032 69.1792ZM13.7216 69.2365C13.5234 69.5038 13.5415 69.5992 13.8837 69.8856C14.0999 70.0764 14.2801 70.3246 14.2801 70.4201C14.2801 70.7255 14.8385 70.8591 15.1088 70.63C15.451 70.3246 15.415 69.9046 15.0547 69.7519C14.8746 69.6756 14.6224 69.4656 14.4962 69.2747C14.208 68.8547 14.0279 68.8356 13.7216 69.2365ZM12.1903 70.9164C12.0282 71.3745 12.2624 71.8327 12.6047 71.7563C13.037 71.68 13.037 70.7637 12.6047 70.6873C12.4425 70.6491 12.2444 70.7637 12.1903 70.9164Z" stroke="#FF00D6" stroke-width="0.3" stroke-linejoin="round" style="mix-blend-mode:lighten"/>
</svg>
