<svg width="420" height="302" viewBox="0 0 420 302" fill="#FFF7FE" xmlns="http://www.w3.org/2000/svg">
<path d="M201.494 181.318C200.996 179.526 199.105 178.43 197.313 178.928C187.955 181.517 178.099 203.224 165.356 233.594C161.373 243.053 157.59 252.015 154.703 257.391C150.92 264.66 146.44 266.054 143.752 265.158C141.363 264.262 139.173 260.976 140.168 255.699C141.462 249.027 144.449 235.685 151.617 210.891L152.015 209.597C152.513 207.804 151.517 206.012 149.725 205.414C147.933 204.917 146.042 206.012 145.544 207.804L145.146 208.999C137.878 234.091 134.792 247.534 133.498 254.504C132.005 262.37 135.29 269.44 141.562 271.531C142.657 271.929 143.951 272.228 145.245 272.228C150.124 272.228 156.097 269.241 160.676 260.578C163.663 254.902 167.347 246.239 171.528 236.182C179.293 217.961 192.136 187.392 199.105 185.5C200.897 185.002 201.992 183.11 201.494 181.318ZM129.317 257.591C127.724 256.495 125.633 256.894 124.538 258.387C120.357 264.561 116.275 266.154 113.985 265.059C111.895 264.063 110.6 260.379 112.094 255.3C114.284 248.231 116.773 239.767 119.063 232.399C121.452 224.134 123.941 215.571 124.538 214.276C127.326 207.506 127.724 202.427 125.633 198.843C124.638 197.05 122.547 194.86 118.266 194.163C114.782 193.665 111.596 194.362 109.008 196.254C104.328 199.739 103.333 205.912 103.233 206.609C102.935 208.402 104.229 210.094 106.021 210.393C107.912 210.692 109.605 209.397 109.904 207.605C110.103 206.311 111.397 200.038 117.271 200.834C119.162 201.133 119.66 201.929 119.759 202.129C120.158 202.925 120.855 205.315 118.266 211.688C117.569 213.281 115.777 219.554 112.492 230.507C110.302 237.875 107.813 246.239 105.623 253.309C103.233 261.175 105.424 268.544 111.098 271.232C112.293 271.829 113.786 272.228 115.479 272.228C119.859 272.228 125.135 269.639 130.213 262.271C131.208 260.677 130.81 258.586 129.317 257.591Z" fill="#FFF7FE"/>
<path d="M197.115 232.697C203.785 232.399 205.378 237.975 205.577 238.672C205.975 240.165 207.469 241.161 209.062 240.763C210.655 240.464 211.65 238.871 211.252 237.278C210.356 233.494 206.175 226.524 196.816 226.823C186.662 227.221 178.598 238.473 176.209 248.828C173.819 258.885 176.308 267.05 183.078 270.734C185.567 272.128 188.155 272.825 190.644 272.825C194.626 272.825 198.509 271.132 201.894 268.046C208.464 261.972 211.551 251.915 208.763 245.542C208.166 244.148 206.374 243.451 204.88 244.148C203.387 244.746 202.79 246.538 203.387 247.932C205.179 251.915 202.591 259.482 197.912 263.665C195.323 266.154 191.042 268.444 185.865 265.556C179.593 262.071 181.186 252.911 181.883 250.222C183.874 241.759 190.146 232.996 197.115 232.697Z" fill="#FFF7FE"/>
<path d="M234.823 259.98C233.529 258.985 231.737 259.283 230.741 260.677C227.655 264.959 223.474 266.353 221.085 265.357C218.795 264.362 218.795 261.573 219.093 260.08C219.591 256.595 229.447 222.541 234.624 206.609C235.122 205.016 234.325 203.423 232.732 202.925C231.239 202.427 229.547 203.224 229.049 204.817C224.569 218.658 213.917 254.803 213.22 259.184C212.224 265.656 215.509 269.44 218.894 270.834C220.189 271.332 221.483 271.531 222.777 271.531C227.356 271.531 232.235 268.842 235.52 264.063C236.516 262.669 236.217 260.876 234.823 259.98Z" fill="#FFF7FE"/>
<path d="M270.896 225.827C269.901 222.342 266.416 220.052 262.235 219.952C257.755 219.753 253.872 222.143 252.578 225.628C249.691 233.394 243.917 251.716 238.939 267.747C235.952 277.107 233.165 285.969 231.273 292.043C230.377 294.731 227.988 295.627 226.992 295.926C224.902 296.424 222.811 296.125 221.517 294.93C220.322 293.935 218.431 294.034 217.435 295.229C216.34 296.424 216.44 298.316 217.634 299.411C219.625 301.104 222.313 302 225.101 302C226.196 302 227.391 301.9 228.486 301.602C232.568 300.506 235.554 297.718 236.848 293.835C238.839 287.761 241.527 278.899 244.514 269.539C249.492 253.508 255.166 235.286 258.054 227.719C258.551 226.424 260.443 225.827 262.036 225.827C263.33 225.827 264.923 226.325 265.321 227.52C265.819 229.113 267.412 230.009 269.005 229.511C270.498 229.013 271.394 227.32 270.896 225.827ZM263.031 246.638H254.47C252.877 246.638 251.583 247.932 251.583 249.525C251.583 251.218 252.877 252.512 254.47 252.512H263.031C264.724 252.512 266.018 251.218 266.018 249.525C266.018 247.932 264.724 246.638 263.031 246.638Z" fill="#FFF7FE"/>
<path d="M28.0496 14.9444C25.4612 17.6329 23.3705 25.0013 18.8905 42.526C15.7048 55.0722 11.4239 72.2983 8.33772 75.385C6.94395 76.6795 6.94395 78.8701 8.33772 80.1645C8.93505 80.8615 9.83104 81.1602 10.727 81.1602C11.623 81.1602 12.4195 80.8615 13.1164 80.1645C17.1981 76.082 20.6825 63.2372 25.4612 44.2188C27.8505 34.7594 31.2353 21.7154 32.9278 19.7239C34.222 18.4295 34.222 16.2389 32.8282 14.9444C31.534 13.65 29.4433 13.65 28.0496 14.9444ZM60.0067 1.99996C58.7125 0.605946 56.5223 0.605946 55.2281 1.99996C49.0557 8.17347 39.8966 5.58458 30.2398 2.99569C20.2843 0.207654 9.0346 -2.8791 0.97066 5.08671C-0.323553 6.48073 -0.323553 8.57176 0.97066 9.96578C2.26487 11.2602 4.45508 11.2602 5.74929 9.96578C11.0257 4.68843 19.0896 6.87902 28.4478 9.46791C33.8238 10.9615 39.6975 12.5547 45.173 12.5547C50.549 12.5547 55.6263 11.1607 60.0067 6.77945C61.3009 5.485 61.3009 3.29441 60.0067 1.99996Z" fill="#FFF7FE"/>
<path d="M62.9373 11.5589C61.3445 11.0611 59.7516 11.9572 59.3534 13.5504L40.8362 76.779C40.4379 78.3722 41.3339 79.9654 42.9268 80.4632C43.1259 80.5628 43.4246 80.5628 43.7232 80.5628C45.0175 80.5628 46.1126 79.7662 46.5108 78.4718L64.9284 15.1436C65.4262 13.5504 64.5302 11.9572 62.9373 11.5589ZM88.5229 68.6141C87.1292 67.6184 85.3372 67.9171 84.4412 69.3111C81.355 73.5927 77.1737 74.9867 74.6848 73.991C72.395 72.9953 72.4946 70.2073 72.6937 68.7137C72.8928 67.1205 74.187 63.2372 75.6804 58.6568C76.7755 55.1718 78.0697 51.1889 79.3639 46.8077C80.6581 42.6256 78.4679 38.2444 74.2866 36.253C70.0057 34.3611 63.8333 35.2572 59.652 41.829C58.756 43.223 59.1543 45.0154 60.548 45.9115C61.9418 46.7081 63.7338 46.3098 64.6298 45.0154C67.0191 41.2316 69.9062 40.7337 71.7977 41.6299C73.0919 42.2273 74.187 43.5218 73.7888 45.1149C72.4946 49.3966 71.2004 53.479 70.1053 56.8645C68.4128 62.0423 67.2182 65.826 66.9195 67.8175C65.924 74.2897 69.2093 78.0735 72.4946 79.4675C73.7888 79.9654 75.083 80.1645 76.4768 80.1645C81.0563 80.1645 85.835 77.4761 89.2198 72.6966C90.1158 71.3025 89.8171 69.5102 88.5229 68.6141Z" fill="#FFF7FE"/>
<path d="M122.756 70.3068C118.475 74.1902 112.601 75.6837 107.823 73.991C105.035 72.9953 101.451 70.506 100.555 64.2329C99.8582 59.6525 101.75 51.9854 106.13 46.9072C109.017 43.5218 112.502 41.829 116.484 41.829H116.583C119.172 41.829 121.063 42.6256 121.86 44.0196C122.656 45.4137 122.457 47.4051 121.362 49.1974C119.371 52.6825 114.692 54.8731 109.017 54.7735C107.225 54.6739 106.031 56.0679 106.031 57.6611C106.031 59.2543 107.325 60.5487 108.918 60.6483C116.882 60.6483 123.353 57.4619 126.439 52.1846C128.63 48.5004 128.829 44.4179 126.937 41.132C125.842 39.2401 123.054 35.9542 116.583 35.9542C116.583 35.9542 116.583 35.9542 116.484 35.9542C110.809 35.9542 105.632 38.344 101.65 43.0239C95.876 49.6953 93.7853 59.1547 94.6813 65.129C95.7764 72.1987 99.8582 77.4761 105.931 79.5671C107.823 80.2641 109.913 80.5628 111.904 80.5628C117.181 80.5628 122.557 78.4718 126.738 74.5884C127.933 73.4931 128.032 71.7008 126.937 70.506C125.842 69.3111 123.95 69.2115 122.756 70.3068Z" fill="#FFF7FE"/>
<path d="M78.7479 87.1595C80.2412 84.5706 83.427 83.774 85.4181 84.5706C87.8074 85.4668 88.7034 88.2548 87.9069 92.3373C87.6083 94.2292 88.8029 96.0215 90.5949 96.3202C92.4865 96.7185 94.2785 95.5236 94.5771 93.7313C96.3691 84.7698 92.1878 79.7911 87.8074 78.198C82.3319 76.1069 75.8608 78.5962 72.8742 83.774C71.4804 86.2633 69.1906 93.8309 65.308 107.074C60.6289 122.906 52.7641 149.392 48.981 153.176C47.6868 154.471 47.6868 156.661 48.981 157.956C49.6779 158.653 50.5739 158.951 51.3703 158.951C52.2663 158.951 53.1623 158.653 53.8592 157.956C58.4387 153.375 64.2129 134.755 71.7791 108.966C74.6661 99.2078 77.6528 89.0514 78.7479 87.1595ZM104.333 163.631C103.238 162.138 101.148 161.739 99.6544 162.934C94.9753 166.32 91.0927 164.428 84.0243 160.644C77.3541 156.96 69.0911 152.38 58.6378 155.865C56.8458 156.462 55.8503 158.454 56.4476 160.146C57.0449 161.939 58.9365 162.934 60.7285 162.337C68.3942 159.748 74.3675 163.034 80.739 166.519C85.0198 168.909 89.6989 171.498 94.6767 171.498C97.5638 171.498 100.55 170.601 103.637 168.311C105.13 167.216 105.429 165.125 104.333 163.631Z" fill="#FFF7FE"/>
<path d="M141.596 146.405C140.302 145.41 138.41 145.708 137.514 147.102C134.428 151.384 130.247 152.778 127.857 151.782C125.468 150.786 125.567 147.998 125.767 146.505C126.065 144.713 127.758 138.041 136.12 114.044C136.618 112.551 135.822 110.858 134.229 110.36C132.735 109.762 131.043 110.559 130.545 112.152C124.074 130.772 120.49 142.024 119.992 145.609C118.997 152.081 122.282 155.865 125.667 157.259C126.862 157.757 128.156 157.956 129.55 157.956C134.129 157.956 138.908 155.267 142.293 150.488C143.189 149.094 142.89 147.301 141.596 146.405ZM123.875 123.902C123.576 120.118 121.884 117.031 118.997 115.239C115.413 112.949 110.236 112.849 105.557 114.841C96.3979 118.624 86.8406 133.959 89.0308 145.808C90.4246 153.176 94.6059 155.964 97.7916 157.06C99.1854 157.458 100.579 157.657 102.073 157.657C106.851 157.657 111.829 155.367 114.816 152.579C116.01 151.483 116.11 149.592 114.915 148.397C113.82 147.202 111.928 147.202 110.833 148.297C108.145 150.786 103.267 152.579 99.6832 151.384C97.0948 150.587 95.5019 148.397 94.805 144.713C93.013 135.154 101.475 122.906 107.747 120.218C110.734 119.023 113.92 119.023 115.811 120.218C117.105 121.014 117.802 122.309 118.001 124.3C118.101 125.893 119.495 127.088 121.087 126.989C122.68 126.889 123.975 125.495 123.875 123.902Z" fill="#FFF7FE"/>
<path d="M189.559 146.405C188.165 145.41 186.373 145.708 185.477 147.102C182.391 151.384 178.209 152.778 175.721 151.782C173.431 150.786 173.431 147.998 173.729 146.505C174.028 144.713 175.721 138.141 183.984 114.044C184.581 112.551 183.784 110.858 182.192 110.36C180.698 109.762 179.006 110.559 178.508 112.152C171.937 130.772 168.453 142.024 167.856 145.609C166.96 152.081 170.145 155.865 173.53 157.259C174.825 157.757 176.119 157.956 177.513 157.956C181.992 157.956 186.871 155.267 190.256 150.488C191.152 149.094 190.853 147.301 189.559 146.405ZM161.484 151.683C159.394 152.778 156.606 152.579 154.814 151.284C153.719 150.488 152.624 149.094 153.022 146.505C153.221 144.713 154.914 138.141 163.276 114.044C163.874 112.551 162.978 110.858 161.484 110.36C159.891 109.762 158.298 110.559 157.701 112.152C151.23 130.772 147.746 142.024 147.148 145.609C146.551 149.89 148.044 153.674 151.33 156.064C153.42 157.557 156.009 158.254 158.498 158.254C160.489 158.254 162.38 157.856 164.172 156.96C165.665 156.263 166.163 154.471 165.466 153.077C164.77 151.583 162.978 150.986 161.484 151.683Z" fill="#FFF7FE"/>
<path d="M204.833 157.06C206.226 157.458 207.72 157.657 209.113 157.657C213.992 157.657 218.87 155.367 221.856 152.579C223.051 151.483 223.151 149.592 222.056 148.397C220.861 147.202 219.069 147.202 217.874 148.297C215.186 150.786 210.308 152.579 206.724 151.384C204.136 150.587 202.543 148.397 201.846 144.713C200.054 135.154 208.616 122.906 214.888 120.218C217.775 119.023 220.96 119.023 222.852 120.218C224.246 121.014 224.943 122.309 225.042 124.3C225.142 125.893 226.536 127.088 228.128 126.989C229.721 126.889 231.015 125.495 230.916 123.902C230.617 120.118 228.925 117.031 226.038 115.239C222.454 112.949 217.277 112.849 212.598 114.841C203.439 118.624 193.882 133.959 196.072 145.808C197.465 153.176 201.647 155.964 204.833 157.06ZM243.36 111.157C241.767 110.659 240.175 111.555 239.677 113.048L219.368 175.082C217.675 179.663 214.29 182.55 210.706 182.65C210.607 182.65 210.507 182.65 210.507 182.65C205.629 182.65 201.647 178.866 201.647 174.286C201.647 171.796 202.841 169.506 204.833 167.913C206.127 166.917 206.326 165.025 205.33 163.83C204.335 162.536 202.543 162.237 201.249 163.233C197.764 166.021 195.773 170.004 195.773 174.286C195.773 181.455 201.249 187.33 208.317 188.325H208.417C209.113 188.524 209.91 188.524 210.607 188.524C216.48 188.524 221.757 184.542 224.544 177.97C224.644 177.87 224.644 177.671 224.744 177.472L245.252 114.841C245.75 113.347 244.854 111.654 243.36 111.157Z" fill="#FFF7FE"/>
<path d="M260.686 89.3501C259.093 88.8522 257.5 89.7484 257.102 91.3415L238.585 154.57C238.187 156.163 239.083 157.757 240.675 158.254C240.875 158.354 241.173 158.354 241.472 158.354C242.766 158.354 243.861 157.557 244.259 156.263L262.677 92.9347C263.175 91.3415 262.279 89.7484 260.686 89.3501ZM286.272 146.405C284.878 145.41 283.086 145.708 282.19 147.102C279.104 151.384 274.922 152.778 272.433 151.782C270.144 150.786 270.243 147.998 270.442 146.505C270.641 144.912 271.936 141.028 273.429 136.448C274.524 132.963 275.818 128.98 277.112 124.599C278.407 120.417 276.216 116.036 272.035 114.044C267.754 112.152 261.582 113.048 257.401 119.62C256.505 121.014 256.903 122.807 258.297 123.703C259.69 124.499 261.482 124.101 262.378 122.807C264.768 119.023 267.655 118.525 269.546 119.421C270.841 120.018 271.936 121.313 271.537 122.906C270.243 127.188 268.949 131.27 267.854 134.656C266.161 139.833 264.967 143.617 264.668 145.609C263.673 152.081 266.958 155.865 270.243 157.259C271.537 157.757 272.832 157.956 274.225 157.956C278.805 157.956 283.584 155.267 286.968 150.488C287.864 149.094 287.566 147.301 286.272 146.405Z" fill="#FFF7FE"/>
<path d="M313.318 146.405C312.024 145.41 310.232 145.708 309.236 147.102C306.15 151.384 301.969 152.678 299.579 151.782C297.289 150.786 297.289 147.998 297.588 146.505C297.787 145.011 298.982 140.232 304.557 123.802C305.055 122.209 304.258 120.616 302.665 120.018C301.172 119.521 299.48 120.317 298.982 121.91C294.502 134.954 292.212 142.721 291.714 145.609C290.719 152.081 294.004 155.865 297.389 157.259C298.683 157.757 299.977 157.956 301.272 157.956C305.851 157.956 310.729 155.267 314.015 150.488C315.01 149.094 314.712 147.301 313.318 146.405ZM305.055 116.434C306.847 116.434 308.34 114.94 308.34 113.148C308.34 111.256 306.847 109.762 305.055 109.762C303.163 109.762 301.769 111.256 301.769 113.148C301.67 114.94 303.163 116.434 305.055 116.434Z" fill="#FFF7FE"/>
<path d="M364.933 146.405C363.639 145.41 361.847 145.708 360.851 147.102C357.765 151.384 353.584 152.778 351.195 151.782C348.905 150.786 348.905 147.998 349.203 146.505C349.403 144.912 350.697 141.028 352.091 136.448C353.285 132.963 354.579 128.88 355.874 124.599C357.068 120.417 354.978 116.036 350.697 114.044C346.416 112.152 340.243 113.048 336.162 119.62C335.266 121.014 335.664 122.807 337.058 123.703C338.352 124.499 340.144 124.101 341.04 122.807C343.529 119.023 346.416 118.525 348.307 119.421C349.502 120.018 350.697 121.313 350.199 122.906C348.905 127.188 347.611 131.27 346.515 134.656C344.823 139.833 343.628 143.617 343.33 145.609C342.334 152.081 345.619 155.865 349.004 157.259C350.299 157.757 351.593 157.956 352.887 157.956C357.466 157.956 362.345 155.267 365.63 150.488C366.626 149.094 366.327 147.301 364.933 146.405ZM333.573 110.26C332.08 109.762 330.388 110.659 329.89 112.152L316.35 154.57C315.853 156.064 316.649 157.757 318.242 158.254C318.541 158.354 318.839 158.354 319.138 158.354C320.333 158.354 321.527 157.557 321.925 156.363L335.465 114.044C335.963 112.451 335.166 110.758 333.573 110.26Z" fill="#FFF7FE"/>
<path d="M379.442 157.06C380.836 157.458 382.33 157.657 383.723 157.657C388.601 157.657 393.48 155.367 396.466 152.579C397.661 151.483 397.761 149.592 396.665 148.397C395.471 147.202 393.679 147.202 392.484 148.297C389.796 150.786 384.918 152.579 381.334 151.384C378.746 150.587 377.153 148.397 376.456 144.713C374.664 135.154 383.226 122.906 389.497 120.218C392.385 119.023 395.57 119.023 397.462 120.218C398.856 121.014 399.553 122.309 399.652 124.3C399.752 125.893 401.145 127.088 402.738 126.989C404.331 126.889 405.625 125.495 405.526 123.902C405.227 120.118 403.535 117.031 400.648 115.239C397.064 112.949 391.887 112.849 387.208 114.841C378.049 118.624 368.491 133.959 370.682 145.808C372.075 153.176 376.257 155.964 379.442 157.06ZM417.97 111.157C416.377 110.659 414.784 111.555 414.287 113.048L393.977 175.082C392.285 179.663 388.9 182.55 385.316 182.65C385.217 182.65 385.117 182.65 385.117 182.65C380.239 182.65 376.257 178.866 376.257 174.286C376.257 171.796 377.451 169.506 379.442 167.913C380.737 166.917 380.936 165.025 379.94 163.83C378.945 162.536 377.153 162.237 375.858 163.233C372.374 166.021 370.383 170.004 370.383 174.286C370.383 181.455 375.858 187.33 382.927 188.325H383.026C383.723 188.524 384.52 188.524 385.217 188.524C391.09 188.524 396.367 184.542 399.154 177.97C399.254 177.87 399.254 177.671 399.353 177.472L419.862 114.841C420.359 113.347 419.463 111.654 417.97 111.157Z" fill="#FFF7FE"/>
</svg>
