<svg width="32" height="27" viewBox="0 0 32 27" fill="none" xmlns="http://www.w3.org/2000/svg">
<path d="M16 6.06137C15.5757 6.06137 15.1687 6.19885 14.8686 6.44356C14.5686 6.68828 14.4 7.02018 14.4 7.36626V13.0869L10.512 14.6828C10.3177 14.7564 10.1435 14.8612 9.99977 14.9908C9.85604 15.1204 9.74568 15.2722 9.67525 15.4372C9.60482 15.6023 9.57575 15.7771 9.58977 15.9515C9.60379 16.1259 9.66061 16.2962 9.75687 16.4523C9.85312 16.6084 9.98684 16.7472 10.1501 16.8604C10.3133 16.9735 10.5028 17.0588 10.7072 17.1112C10.9117 17.1635 11.1269 17.1818 11.3402 17.165C11.5535 17.1482 11.7604 17.0966 11.9488 17.0133L16.7184 15.056C16.9834 14.9476 17.2062 14.7811 17.3619 14.5754C17.5176 14.3696 17.6 14.1325 17.6 13.8907V7.36626C17.6 7.02018 17.4314 6.68828 17.1314 6.44356C16.8313 6.19885 16.4244 6.06137 16 6.06137ZM16 0.841797C12.8355 0.841797 9.74207 1.6071 7.11088 3.04094C4.4797 4.47477 2.42894 6.51274 1.21793 8.89712C0.00693262 11.2815 -0.309921 13.9052 0.307443 16.4364C0.924806 18.9677 2.44866 21.2928 4.6863 23.1177C6.92394 24.9426 9.77486 26.1854 12.8786 26.6889C15.9823 27.1924 19.1993 26.934 22.1229 25.9464C25.0466 24.9587 27.5454 23.2862 29.3035 21.1403C31.0616 18.9944 32 16.4716 32 13.8907C31.9953 10.4311 30.3081 7.11426 27.3086 4.66794C24.309 2.22161 20.242 0.845596 16 0.841797ZM16 24.3299C13.4684 24.3299 10.9937 23.7176 8.88871 22.5706C6.78376 21.4235 5.14315 19.7931 4.17435 17.8856C3.20555 15.9781 2.95206 13.8791 3.44596 11.8542C3.93985 9.82916 5.15893 7.96908 6.94904 6.50914C8.73915 5.0492 11.0199 4.05497 13.5028 3.65217C15.9858 3.24937 18.5595 3.4561 20.8984 4.24622C23.2372 5.03633 25.2363 6.37434 26.6428 8.09105C28.0493 9.80776 28.8 11.8261 28.8 13.8907C28.7958 16.6583 27.4458 19.3115 25.0463 21.2685C22.6467 23.2255 19.3935 24.3264 16 24.3299Z" fill="#EC008C"/>
</svg>
