<svg width="24" height="32" viewBox="0 0 24 32" fill="none" xmlns="http://www.w3.org/2000/svg">
<path d="M8.27835 14.4294L2.44351 0.846072C2.34277 0.613511 2.21825 0.420165 2.07709 0.277147C1.93594 0.134129 1.78093 0.0442597 1.62099 0.012703C1.46105 -0.0188537 1.29932 0.00852518 1.1451 0.0932661C0.990878 0.178007 0.84721 0.318438 0.722349 0.50649C0.596953 0.693311 0.492701 0.924252 0.415586 1.18604C0.338471 1.44783 0.290014 1.7353 0.272999 2.03193C0.255983 2.32856 0.270746 2.62851 0.316438 2.91453C0.36213 3.20054 0.43785 3.46699 0.539246 3.69856L5.75154 15.8556L0.282904 28.0126C0.18012 28.2414 0.102682 28.5055 0.0550211 28.7899C0.00736035 29.0742 -0.00958533 29.3732 0.00515542 29.6697C0.0198962 29.9662 0.0660335 30.2545 0.140925 30.5179C0.215816 30.7812 0.317988 31.0147 0.441592 31.2047C0.662879 31.5341 0.939119 31.7102 1.22283 31.7028C1.40216 31.7033 1.57935 31.6306 1.7418 31.4897C1.90426 31.3488 2.04798 31.1433 2.16275 30.8878L8.26614 17.3045C8.44741 16.902 8.54772 16.3953 8.54994 15.871C8.55217 15.3466 8.45617 14.837 8.27835 14.4294Z" fill="#E31BC3"/>
<path d="M15.8758 14.4619L10.0409 0.878644C9.94018 0.646083 9.81565 0.452738 9.6745 0.30972C9.53335 0.166701 9.37834 0.0768317 9.2184 0.045275C9.05845 0.0137183 8.89672 0.0410976 8.74251 0.125839C8.58829 0.210579 8.44462 0.351011 8.31976 0.539062C8.19436 0.725883 8.09011 0.956825 8.01299 1.21861C7.93588 1.4804 7.88742 1.76787 7.87041 2.0645C7.85339 2.36114 7.86815 2.66108 7.91385 2.9471C7.95954 3.23312 8.03526 3.49957 8.13665 3.73113L13.349 15.8882L7.88031 28.0452C7.77753 28.274 7.70009 28.5381 7.65243 28.8224C7.60477 29.1068 7.58782 29.4058 7.60256 29.7023C7.6173 29.9988 7.66344 30.287 7.73833 30.5504C7.81322 30.8138 7.9154 31.0472 8.039 31.2373C8.26029 31.5666 8.53653 31.7428 8.82023 31.7353C8.99957 31.7359 9.17676 31.6631 9.33921 31.5223C9.50166 31.3814 9.64538 31.1759 9.76016 30.9203L15.8636 17.3371C16.0448 16.9346 16.1451 16.4279 16.1474 15.9035C16.1496 15.3792 16.0536 14.8696 15.8758 14.4619Z" fill="#E31BC3"/>
<path d="M23.4703 14.7264L17.6355 1.14309C17.5347 0.910528 17.4102 0.717182 17.269 0.574164C17.1279 0.431146 16.9729 0.341276 16.8129 0.30972C16.653 0.278163 16.4913 0.305542 16.3371 0.390283C16.1828 0.475024 16.0392 0.615455 15.9143 0.803507C15.7889 0.990328 15.6847 1.22127 15.6075 1.48306C15.5304 1.74484 15.482 2.03232 15.465 2.32895C15.4479 2.62558 15.4627 2.92553 15.5084 3.21154C15.5541 3.49756 15.6298 3.76401 15.7312 3.99558L20.9435 16.1526L15.4749 28.3097C15.3721 28.5384 15.2946 28.8025 15.247 29.0869C15.1993 29.3712 15.1824 29.6702 15.1971 29.9667C15.2118 30.2633 15.258 30.5515 15.3329 30.8149C15.4078 31.0783 15.5099 31.3117 15.6335 31.5017C15.8548 31.8311 16.1311 32.0072 16.4148 31.9998C16.5941 32.0003 16.7713 31.9276 16.9338 31.7867C17.0962 31.6458 17.2399 31.4403 17.3547 31.1848L23.4581 17.6015C23.6394 17.199 23.7397 16.6924 23.7419 16.168C23.7441 15.6436 23.6481 15.1341 23.4703 14.7264Z" fill="#E31BC3"/>
</svg>
