<svg width="51" height="51" viewBox="0 0 51 51" fill="none" xmlns="http://www.w3.org/2000/svg">
<path d="M44.0263 1.57237C44.0263 0.703973 43.3223 0 42.4539 0H3.14474C1.40795 0 0 1.40795 0 3.14474V42.4539C0 43.3223 0.703973 44.0263 1.57237 44.0263C2.44076 44.0263 3.14474 43.3223 3.14474 42.4539V5.50329C3.14474 3.7665 3.7665 3.14474 5.50329 3.14474H42.4539C43.3223 3.14474 44.0263 2.44076 44.0263 1.57237Z" fill="#5B0B4F"/>
<path d="M7.86184 47.1711C6.99345 47.1711 6.28947 47.875 6.28947 48.7434C6.28947 49.6118 6.99345 50.3158 7.86184 50.3158H47.1711C48.9078 50.3158 50.3158 48.9078 50.3158 47.1711V7.86184C50.3158 6.99345 49.6118 6.28947 48.7434 6.28947C47.875 6.28947 47.1711 6.99345 47.1711 7.86184V44.8125C47.1711 46.5493 46.5493 47.1711 44.8125 47.1711H7.86184Z" fill="#5B0B4F"/>
</svg>
