<svg width="32" height="27" viewBox="0 0 32 27" fill="none" xmlns="http://www.w3.org/2000/svg">
<path d="M28.0337 14.6483C27.6804 14.6483 27.3111 14.5564 26.9578 14.4907C26.2425 14.3618 25.5394 14.1906 24.8543 13.9785C24.1094 13.7568 23.2905 13.7683 22.5553 14.0108C21.8202 14.2533 21.2206 14.7096 20.872 15.2919L20.5187 15.8829C18.9547 15.1713 17.5175 14.2874 16.2474 13.2561C14.9865 12.2172 13.9059 11.0417 13.0359 9.76243L13.7103 9.39468C14.4222 9.10956 14.9801 8.61915 15.2765 8.01782C15.573 7.41649 15.5871 6.74673 15.3161 6.13742C15.0611 5.57584 14.8519 5.00106 14.6898 4.41685C14.6095 4.1279 14.5453 3.82582 14.4971 3.52374C14.3021 2.5986 13.7097 1.7608 12.8265 1.16123C11.9433 0.561652 10.8275 0.239699 9.67982 0.253346H4.86252C4.17049 0.248032 3.48518 0.364741 2.85325 0.59553C2.22131 0.826318 1.65759 1.16577 1.20047 1.59077C0.743337 2.01577 0.403532 2.51634 0.204181 3.05841C0.00483125 3.60048 -0.0493828 4.17132 0.0452299 4.73207C0.900682 10.2344 3.97298 15.3469 8.77682 19.2618C13.5807 23.1768 19.8422 25.6711 26.5725 26.3508H27.1827C28.3668 26.3522 29.51 25.9969 30.3942 25.3526C30.9022 24.981 31.308 24.5254 31.5848 24.016C31.8616 23.5065 32.0031 22.9549 31.9999 22.3974V18.4572C31.9803 17.5449 31.5741 16.6664 30.8508 15.9718C30.1274 15.2771 29.1318 14.8094 28.0337 14.6483ZM28.8366 22.5288C28.8363 22.7153 28.7875 22.8995 28.6933 23.0694C28.5992 23.2392 28.4619 23.3907 28.2906 23.5138C28.1117 23.6412 27.902 23.7363 27.6751 23.7929C27.4482 23.8495 27.2093 23.8663 26.9739 23.8422C20.9602 23.2115 15.3742 20.9612 11.0973 17.4463C6.82027 13.9313 4.09563 9.35178 3.35311 4.42999C3.32755 4.2376 3.34995 4.04297 3.41894 3.85786C3.48794 3.67274 3.60211 3.501 3.75455 3.35299C3.90502 3.21289 4.09025 3.10061 4.2979 3.02361C4.50556 2.94661 4.73088 2.90667 4.95887 2.90643H9.77616C10.1496 2.89964 10.5142 2.99953 10.8073 3.18891C11.1004 3.37829 11.3036 3.64532 11.3819 3.94403C11.4462 4.30303 11.5264 4.65765 11.6228 5.00789C11.8083 5.70024 12.0552 6.38064 12.3614 7.04367L10.1134 7.89739C9.92116 7.96952 9.74826 8.072 9.6046 8.19894C9.46094 8.32588 9.34935 8.47478 9.27624 8.63709C9.20313 8.79941 9.16994 8.97193 9.17858 9.14476C9.18721 9.31759 9.2375 9.48733 9.32655 9.64422C11.6376 13.6931 15.6167 16.9478 20.5669 18.8381C20.9578 18.9695 21.3963 18.9695 21.7873 18.8381C21.9875 18.7795 22.1716 18.689 22.3287 18.5717C22.4858 18.4545 22.6129 18.3129 22.7026 18.1551L23.6981 16.3163C24.5283 16.5592 25.3755 16.7609 26.2353 16.9205C26.6635 16.9993 27.097 17.065 27.5359 17.1175C27.9011 17.1816 28.2276 17.3478 28.4591 17.5875C28.6907 17.8273 28.8128 18.1255 28.8045 18.4309L28.8366 22.5288Z" fill="#EC008C"/>
</svg>
