<svg width="24" height="24" viewBox="0 0 24 24" fill="none" xmlns="http://www.w3.org/2000/svg">
<path d="M23.5783 1.63713C23.5783 1.41622 23.5282 1.19925 23.4331 1.00827C23.338 0.817294 23.2014 0.659105 23.037 0.549775C22.8726 0.440446 22.6864 0.383873 22.4972 0.385802C22.308 0.387731 22.1227 0.448094 21.96 0.560759C21.3324 0.997331 20.6566 1.33168 19.9515 1.55453C18.945 0.546084 17.6614 -0.00570011 16.3353 4.44054e-05C14.8806 0.00208016 13.4836 0.664181 12.4391 1.84655C11.3946 3.02892 10.7844 4.63901 10.7374 6.33688C7.86917 5.80285 5.26956 4.05463 3.4344 1.42561C3.32382 1.26913 3.18267 1.14595 3.02283 1.06645C2.86299 0.986951 2.68913 0.953454 2.51589 0.96878C2.34269 0.98552 2.17558 1.05124 2.029 1.16027C1.88242 1.2693 1.76077 1.41836 1.67455 1.59458C1.23247 2.4956 0.978584 3.50567 0.933518 4.54278C0.888452 5.57989 1.05347 6.61479 1.41518 7.56344L1.41304 7.56469C1.25011 7.6816 1.11565 7.84545 1.02256 8.04051C0.929472 8.23557 0.880876 8.4553 0.881438 8.67861C0.879719 8.86234 0.88939 9.04597 0.910376 9.22806C1.01983 10.8026 1.61735 12.2765 2.59091 13.3733C2.52485 13.5204 2.48457 13.6814 2.47242 13.8469C2.46027 14.0124 2.47651 14.179 2.52018 14.3371C2.94457 15.8817 3.84731 17.1859 5.0517 17.9942C3.82792 18.5467 2.50656 18.7393 1.20404 18.555C0.963077 18.52 0.719079 18.5816 0.512008 18.7297C0.304937 18.8778 0.147067 19.1036 0.0642551 19.3701C-0.018557 19.6367 -0.0214032 19.9282 0.0561828 20.1969C0.133769 20.4656 0.287188 20.6956 0.491314 20.8491C2.73154 22.5338 5.33988 23.4294 8.00443 23.4287C11.026 23.4684 13.9741 22.3409 16.3902 20.2216C18.8063 18.1022 20.5549 15.1099 21.3641 11.71C21.7423 10.229 21.9355 8.69207 21.9375 7.14666L21.9364 6.89634C22.496 6.19144 22.9295 5.36317 23.2115 4.46008C23.4934 3.55699 23.6181 2.59725 23.5783 1.63713ZM20.0351 5.65726C19.8578 5.90159 19.768 6.21625 19.7843 6.53588C19.795 6.74239 19.7939 6.95016 19.7939 7.14666C19.7916 8.4523 19.6277 9.7507 19.3073 11.0016C18.6468 13.8948 17.1739 16.4454 15.1245 18.245C13.0752 20.0445 10.568 20.9888 8.00443 20.9267C7.08392 20.9269 6.16659 20.8004 5.27141 20.55C6.41318 20.12 7.48072 19.4573 8.42456 18.5925C8.59861 18.4327 8.726 18.2139 8.78925 17.9661C8.8525 17.7184 8.84848 17.4538 8.77777 17.2088C8.70706 16.9638 8.57311 16.7504 8.39433 16.5979C8.21555 16.4454 8.00072 16.3613 7.77936 16.3572C6.88842 16.3409 6.03769 15.9213 5.40646 15.1869C5.56651 15.1519 5.72549 15.1081 5.88339 15.0555C6.11492 14.9786 6.31756 14.813 6.45865 14.5853C6.59975 14.3575 6.67109 14.081 6.66119 13.8001C6.65129 13.5193 6.56072 13.2505 6.40407 13.0371C6.24742 12.8236 6.03381 12.678 5.79765 12.6236C5.28051 12.5044 4.7939 12.2474 4.37566 11.8727C3.95741 11.498 3.61881 11.0158 3.38617 10.4634C3.57989 10.4943 3.77486 10.5135 3.97028 10.521C4.20252 10.5254 4.42993 10.4434 4.61956 10.2868C4.80918 10.1301 4.95116 9.90705 5.02491 9.64985C5.0957 9.39048 5.09214 9.11122 5.01478 8.85442C4.93741 8.59761 4.79046 8.37727 4.5962 8.22679C4.12455 7.86015 3.73814 7.36261 3.4716 6.77874C3.20506 6.19488 3.0667 5.54292 3.06892 4.88127C3.06892 4.79866 3.07107 4.71481 3.07535 4.63345C5.47769 7.25008 8.59381 8.79253 11.8746 8.98901C12.0403 8.99635 12.2052 8.9596 12.3569 8.88154C12.5086 8.80348 12.6431 8.68615 12.7502 8.53843C12.8564 8.3898 12.9315 8.21446 12.9699 8.02617C13.0082 7.83789 13.0086 7.64179 12.971 7.4533C12.9097 7.15443 12.8784 6.84822 12.8778 6.54089C12.8789 5.47044 13.2435 4.44422 13.8917 3.6873C14.5399 2.93038 15.4187 2.50456 16.3353 2.50324C16.807 2.50161 17.2739 2.61422 17.7065 2.83395C18.1391 3.05368 18.528 3.37577 18.8486 3.77987C18.9722 3.93521 19.1278 4.05104 19.3006 4.11633C19.4734 4.18161 19.6576 4.19418 19.8357 4.15284C20.276 4.0529 20.71 3.91825 21.1347 3.74983C20.8451 4.44174 20.4751 5.08362 20.0351 5.65726Z" fill="#EC008C"/>
</svg>
