<svg width="26" height="24" viewBox="0 0 26 24" fill="none" xmlns="http://www.w3.org/2000/svg">
<path d="M18.4518 14.0695C18.199 13.9525 16.556 13.2505 16.3033 13.1335C16.0505 13.0165 15.7977 13.0165 15.545 13.2505C15.2922 13.4845 14.7867 14.1865 14.5339 14.4205C14.4075 14.6545 14.1548 14.6545 13.902 14.5375C13.0173 14.1865 12.1327 13.7185 11.3744 13.1335C10.7425 12.5485 10.1106 11.8465 9.60503 11.1445C9.47865 10.9105 9.60503 10.6764 9.73141 10.5594C9.85779 10.4424 9.98418 10.2084 10.2369 10.0914C10.3633 9.97444 10.4897 9.74043 10.4897 9.62343C10.6161 9.50643 10.6161 9.27242 10.4897 9.15542C10.3633 9.03842 9.73141 7.63439 9.47865 7.04938C9.35227 6.23037 9.0995 6.23037 8.84674 6.23037H8.21483C7.96206 6.23037 7.58292 6.46437 7.45654 6.58137C6.69825 7.28339 6.3191 8.1024 6.3191 9.03842C6.44548 10.0914 6.82463 11.1445 7.58292 12.0805C8.97312 13.9525 10.7425 15.4735 12.891 16.4096C13.5229 16.6436 14.0284 16.8776 14.6603 16.9946C15.2922 17.2286 15.9241 17.2286 16.6824 17.1116C17.5671 16.9946 18.3254 16.4096 18.8309 15.7075C19.0837 15.2395 19.0837 14.7715 18.9573 14.3035L18.4518 14.0695ZM21.6113 3.42231C16.6824 -1.14077 8.72036 -1.14077 3.79146 3.42231C-0.252764 7.16638 -1.01106 12.8995 1.76935 17.4626L0 23.4297L6.69825 21.7917C8.59398 22.7277 10.6161 23.1957 12.6382 23.1957C19.5892 23.1957 25.15 18.0476 25.15 11.6125C25.2764 8.57041 23.8862 5.64536 21.6113 3.42231ZM18.199 19.8026C16.556 20.7386 14.6603 21.3236 12.6382 21.3236C10.7425 21.3236 8.97312 20.8556 7.33016 20.0366L6.95101 19.8026L3.03317 20.7386L4.04422 17.2286L3.79146 16.8776C0.758292 12.1975 2.27488 6.34737 7.20377 3.42231C12.1327 0.497259 18.4518 2.01829 21.4849 6.46437C24.5181 11.0275 23.1279 16.9946 18.199 19.8026Z" fill="#EC008C"/>
</svg>
